<?xml version="1.0" standalone="no"?>
<!DOCTYPE svg PUBLIC "-//W3C//DTD SVG 20010904//EN"
 "http://www.w3.org/TR/2001/REC-SVG-20010904/DTD/svg10.dtd">
<svg version="1.0" xmlns="http://www.w3.org/2000/svg"
 width="988.000000pt" height="1280.000000pt" viewBox="0 0 988.000000 1280.000000"
 preserveAspectRatio="xMidYMid meet">
<metadata>
Created by potrace 1.15, written by Peter Selinger 2001-2017
</metadata>
<g transform="translate(0.000000,1280.000000) scale(0.100000,-0.100000)"
fill="#000000" stroke="none">
<path d="M3702 12779 c-53 -27 -143 -108 -182 -163 -15 -23 -33 -62 -40 -86
-7 -24 -27 -75 -46 -112 -40 -80 -113 -329 -120 -413 -3 -33 -14 -112 -24
-175 -22 -133 -36 -282 -45 -462 -5 -103 -3 -139 10 -185 38 -131 109 -236
283 -416 65 -67 163 -174 218 -237 56 -63 140 -158 189 -210 48 -52 111 -129
140 -170 29 -41 83 -109 120 -150 86 -96 125 -156 125 -193 0 -19 -13 -45 -39
-76 -21 -25 -81 -111 -133 -191 -53 -80 -103 -152 -112 -159 -9 -7 -16 -19
-16 -25 0 -16 -37 -50 -77 -70 -35 -18 -71 -78 -104 -175 -29 -84 -25 -129 20
-219 21 -42 53 -124 71 -182 39 -128 60 -169 111 -225 47 -51 121 -85 200 -92
68 -7 113 7 193 59 33 21 67 37 75 36 23 -5 81 -86 81 -113 0 -16 -30 -58 -87
-123 -134 -151 -290 -425 -344 -603 -12 -38 -23 -69 -25 -69 -1 0 -20 11 -40
25 -29 20 -49 25 -95 25 -73 0 -84 15 -80 113 3 75 -13 137 -35 137 -23 0 -26
-24 -11 -84 9 -31 13 -56 11 -56 -8 0 -54 54 -68 80 -8 14 -24 62 -36 108 -12
45 -27 85 -32 88 -13 8 -28 -15 -28 -43 0 -31 -17 -37 -45 -19 -33 22 -51 60
-59 125 -7 57 -30 111 -46 111 -17 0 -31 -39 -24 -67 6 -26 2 -24 -46 23 -46
46 -53 58 -66 120 -14 65 -35 104 -57 104 -6 0 -19 -8 -29 -17 -24 -22 -49 -3
-28 22 10 13 9 15 -7 15 -32 0 -53 33 -59 91 -9 84 -11 87 -39 54 l-25 -30
-29 32 c-32 34 -45 74 -56 166 -10 84 -46 112 -60 47 -9 -41 -21 -38 -46 12
-21 41 -21 43 -3 76 18 33 18 34 -1 48 -10 8 -24 14 -31 14 -6 0 -17 7 -24 15
-13 16 -8 27 83 158 44 63 41 82 -9 74 l-34 -6 14 33 c7 18 34 68 59 111 l46
78 -29 27 c-38 35 -37 47 3 100 17 24 37 51 43 62 6 10 20 29 31 41 27 29 56
87 48 95 -3 4 -24 -3 -45 -16 -49 -28 -50 -28 -50 4 0 36 15 60 82 133 65 69
84 101 75 125 -11 27 -36 17 -62 -24 -23 -36 -45 -52 -45 -32 0 29 52 158 76
188 84 105 91 128 48 144 -24 9 -26 14 -21 49 3 26 20 57 51 95 39 49 96 143
96 161 0 16 -32 1 -54 -26 -31 -37 -34 -23 -11 61 17 64 19 153 5 181 -24 44
-37 26 -123 -173 -14 -31 -37 -64 -51 -74 -24 -15 -32 -15 -78 -3 -49 13 -53
17 -85 79 -29 59 -91 131 -184 216 -19 17 -44 45 -57 62 -12 17 -57 54 -100
81 -42 27 -97 64 -121 82 -25 17 -61 38 -80 46 -20 8 -42 20 -50 27 -12 9 -9
12 15 16 24 4 30 12 42 53 7 26 17 47 21 47 5 0 25 -17 44 -37 20 -21 139
-141 265 -268 158 -158 241 -250 266 -292 65 -109 89 -69 37 61 -16 39 -34 97
-40 128 -15 73 -33 98 -58 80 -35 -24 -45 -25 -71 -5 -17 13 -29 35 -37 69
-21 92 -49 116 -84 73 -15 -18 -20 -20 -37 -9 -34 21 -63 73 -74 130 -10 55
-33 100 -50 100 -5 0 -14 -9 -20 -20 -6 -11 -17 -20 -25 -20 -27 0 -96 94
-150 206 -43 88 -60 114 -75 114 -27 0 -26 -29 7 -147 20 -69 32 -97 45 -101
19 -5 21 -11 12 -36 -5 -12 -12 -9 -37 16 -18 17 -106 73 -197 124 -91 51
-191 109 -222 129 -67 42 -217 180 -238 219 -7 15 -25 29 -38 33 -15 4 -30 19
-39 42 -20 48 -50 89 -74 101 -32 18 -34 -15 -4 -75 l28 -54 -29 -34 c-16 -19
-37 -44 -47 -56 -14 -18 -25 -21 -45 -16 -25 5 -41 15 -114 68 -14 11 -31 16
-37 13 -33 -21 11 -78 107 -136 68 -41 84 -64 69 -97 -14 -31 -5 -37 73 -52
75 -15 95 -36 86 -94 l-7 -44 80 5 c94 5 126 -5 171 -54 31 -34 33 -35 86 -28
78 9 121 -1 137 -34 12 -25 17 -27 61 -24 87 6 156 -62 127 -124 -6 -14 -9
-29 -6 -33 2 -5 44 -22 92 -40 48 -17 103 -40 121 -51 28 -17 31 -23 22 -40
-6 -11 -9 -24 -6 -29 3 -4 38 -20 78 -35 72 -26 168 -87 168 -106 0 -6 -13
-10 -30 -10 -63 0 -23 -48 59 -70 47 -12 131 -83 131 -109 0 -9 -5 -22 -11
-28 -16 -16 -32 -90 -30 -143 1 -25 -1 -55 -4 -67 -6 -26 -30 -31 -39 -8 -3 8
-13 15 -22 15 -14 0 -16 -8 -11 -47 3 -27 17 -73 31 -103 40 -86 34 -140 -16
-140 l-31 0 9 -62 c20 -148 4 -238 -43 -238 -23 0 -25 -3 -19 -32 15 -77 19
-208 6 -224 -12 -13 -16 -12 -38 11 -37 41 -48 20 -33 -62 7 -38 19 -78 27
-91 9 -13 14 -39 12 -60 -2 -30 -7 -38 -26 -40 -13 -2 -28 -14 -34 -27 -12
-27 10 -108 68 -256 19 -47 34 -90 34 -94 0 -15 -62 6 -106 36 -45 31 -74 35
-82 10 -2 -7 20 -36 51 -65 30 -28 82 -86 116 -129 l62 -78 -46 7 c-42 6 -47
5 -43 -12 2 -11 34 -38 75 -62 111 -67 167 -152 99 -152 -31 0 -42 -16 -24
-37 7 -9 50 -40 95 -70 111 -71 138 -114 78 -125 -38 -7 -20 -33 48 -69 64
-34 126 -90 127 -116 0 -17 -15 -16 -51 2 -27 14 -30 14 -36 -1 -10 -27 9 -47
90 -90 43 -22 87 -50 98 -61 20 -20 20 -22 4 -46 -23 -35 -8 -59 52 -87 108
-48 113 -52 113 -79 0 -45 29 -71 135 -120 56 -27 109 -59 119 -72 9 -13 24
-48 32 -77 17 -59 34 -72 168 -139 l75 -37 3 -300 c4 -313 6 -336 68 -681 11
-61 14 -104 9 -111 -5 -6 -27 -14 -49 -17 -55 -7 -128 -52 -152 -93 -11 -19
-23 -34 -27 -34 -17 0 -45 43 -104 160 -63 125 -90 158 -106 131 -5 -7 -6 -31
-3 -53 5 -37 3 -39 -14 -30 -40 22 -104 100 -133 163 -35 74 -61 103 -88 97
-14 -3 -18 -12 -16 -41 1 -20 -1 -37 -6 -37 -19 0 -114 96 -158 159 -66 94
-95 113 -108 71 -16 -49 -82 -5 -154 103 -18 27 -44 53 -58 60 -23 10 -28 9
-41 -11 -8 -12 -22 -22 -31 -22 -8 0 -59 45 -111 100 -91 96 -130 121 -130 83
0 -10 19 -37 43 -61 23 -25 35 -42 27 -39 -8 3 -40 14 -70 24 -40 13 -70 33
-110 72 -52 52 -105 91 -124 91 -4 0 -5 -16 -2 -35 7 -33 5 -35 -21 -35 -15 0
-62 13 -103 30 -96 38 -130 39 -130 6 0 -27 45 -68 143 -130 73 -46 70 -62
-10 -58 -75 5 -102 -9 -151 -73 -33 -43 -43 -50 -92 -60 -30 -6 -65 -16 -76
-23 -30 -16 -75 -72 -68 -83 9 -15 27 -10 68 21 22 17 48 30 59 30 30 0 -57
-116 -127 -170 -104 -80 -160 -136 -153 -154 9 -22 39 -20 60 5 25 28 31 19
12 -17 -8 -16 -15 -35 -15 -42 0 -8 -26 -37 -57 -65 -148 -133 -164 -157 -127
-198 15 -17 14 -21 -12 -64 -16 -26 -37 -62 -48 -81 -10 -20 -47 -58 -82 -86
-94 -74 -104 -99 -49 -122 19 -8 35 -19 35 -24 0 -10 -107 -121 -163 -167 -48
-41 -58 -82 -26 -108 l24 -19 -26 -22 c-14 -11 -54 -41 -87 -65 -60 -42 -99
-87 -88 -98 8 -9 83 27 102 48 21 23 34 24 34 3 0 -9 -30 -48 -66 -86 -61 -65
-75 -95 -43 -91 8 1 51 16 96 34 46 18 86 30 89 26 12 -12 -18 -37 -45 -37
-34 0 -51 -14 -81 -63 -26 -45 -93 -97 -124 -97 -33 0 -117 -33 -113 -44 2 -6
19 -15 38 -21 19 -6 44 -16 56 -23 46 -26 78 -10 98 51 6 20 31 46 70 73 92
66 125 55 65 -21 -17 -21 -30 -46 -30 -56 0 -32 -21 -63 -61 -92 -22 -15 -49
-42 -59 -61 -23 -37 -92 -96 -113 -96 -8 0 -17 -12 -20 -27 -8 -41 -93 -145
-165 -202 -35 -28 -67 -51 -71 -51 -15 0 -50 45 -57 74 -6 23 -2 32 22 52 16
14 49 34 72 44 44 20 184 153 209 199 12 22 18 51 9 51 -2 0 -17 -7 -32 -15
-18 -9 -57 -15 -105 -15 -87 0 -102 -10 -97 -62 2 -26 8 -34 26 -36 65 -10
-24 -50 -183 -83 -86 -18 -121 -37 -112 -64 3 -5 19 -9 38 -8 32 1 36 -2 56
-48 l22 -49 -22 -14 c-12 -7 -43 -25 -70 -40 -26 -15 -62 -42 -80 -60 -18 -18
-51 -42 -73 -55 -22 -12 -52 -42 -68 -67 -16 -25 -44 -55 -63 -68 -21 -15 -60
-65 -99 -127 -35 -57 -84 -125 -109 -150 -47 -49 -56 -78 -30 -99 12 -10 18
-7 32 19 23 40 31 42 79 21 21 -10 58 -21 82 -25 45 -7 56 -19 66 -76 4 -21
13 -42 21 -49 20 -16 30 12 39 109 14 143 38 194 144 309 18 19 40 49 49 66 9
17 51 67 94 112 44 46 80 88 80 96 1 7 5 -13 9 -45 4 -32 12 -63 18 -69 17
-17 40 8 47 53 6 33 24 59 98 137 99 106 125 118 140 67 22 -73 27 -80 43 -63
9 9 22 49 29 91 14 81 72 228 93 235 8 2 12 -8 12 -31 0 -44 25 -69 35 -35 4
13 19 41 33 62 15 22 32 67 39 100 7 34 35 108 63 164 l50 104 40 -32 c57 -45
78 -76 96 -139 19 -65 34 -84 57 -75 22 8 21 34 -3 136 -33 139 -25 173 42
166 33 -3 33 -3 30 37 -2 22 -10 64 -18 94 -12 43 -13 59 -3 82 13 33 29 36
65 13 16 -11 28 -14 35 -7 12 12 -6 109 -26 140 -8 12 -15 31 -15 42 0 29 31
89 49 96 19 7 41 -20 41 -52 0 -13 4 -23 10 -23 13 0 24 65 15 98 -18 72 -17
101 5 132 22 31 24 60 3 67 -6 3 -28 -17 -47 -44 -48 -66 -162 -299 -180 -370
-9 -32 -29 -94 -45 -138 -16 -44 -32 -99 -36 -122 -10 -62 -25 -70 -77 -39
-24 13 -67 28 -96 32 -29 4 -55 11 -58 15 -3 5 6 30 20 56 13 27 32 69 40 94
9 25 31 67 49 94 38 57 49 76 78 135 12 25 46 94 75 153 30 59 67 142 84 185
34 86 48 114 110 222 89 156 114 196 150 245 21 28 55 83 76 123 21 41 54 92
74 115 20 23 48 60 62 82 14 22 46 62 71 88 40 44 48 48 83 45 60 -5 57 -30
-14 -98 -67 -65 -99 -117 -167 -270 -26 -58 -64 -141 -85 -185 -21 -44 -50
-110 -64 -147 -15 -37 -43 -97 -62 -133 -39 -77 -46 -135 -14 -135 11 0 29
-13 42 -30 12 -16 25 -30 30 -30 4 0 8 39 8 88 0 137 25 198 69 170 11 -7 23
-9 27 -5 4 3 11 53 16 109 10 112 21 160 43 178 12 10 17 7 25 -14 5 -14 14
-26 20 -26 17 0 27 39 33 130 3 47 11 99 18 115 l11 30 10 -27 c5 -16 16 -28
23 -28 15 0 21 14 30 80 9 62 15 80 26 80 5 0 9 -11 9 -24 0 -13 7 -29 15 -36
21 -18 42 2 56 52 9 35 13 39 32 34 12 -4 36 -9 52 -12 38 -7 145 -55 145 -66
0 -4 -12 -10 -27 -14 -16 -3 -41 -9 -57 -13 -102 -24 51 -71 164 -51 43 8 65
8 80 0 23 -12 27 -30 7 -30 -7 0 -22 -6 -32 -14 -16 -12 -17 -16 -6 -30 17
-21 132 -56 182 -56 23 0 60 -11 91 -27 78 -41 90 -63 33 -63 -24 0 -35 -5
-35 -15 0 -21 35 -41 142 -79 84 -29 206 -98 223 -126 6 -10 -14 -16 -84 -24
-102 -11 -50 -48 97 -67 73 -10 104 -20 153 -48 34 -20 62 -40 61 -46 0 -5
-14 -14 -31 -19 -17 -5 -31 -15 -31 -23 0 -30 65 -43 243 -47 145 -3 179 -7
202 -22 53 -35 181 -15 267 41 21 14 40 25 42 25 2 0 21 -26 40 -57 65 -103
48 -140 -118 -256 -49 -34 -97 -75 -106 -92 -15 -27 -23 -31 -81 -37 -41 -5
-65 -4 -68 3 -7 21 -46 49 -68 49 -33 0 -29 -27 8 -45 16 -9 29 -22 27 -28 -8
-24 -78 -48 -175 -60 -107 -14 -104 -11 -87 -81 11 -44 -26 -59 -184 -74 -101
-10 -136 -28 -113 -56 9 -10 26 -13 70 -9 75 7 85 -7 36 -53 -53 -49 -80 -61
-174 -74 -107 -14 -131 -24 -131 -51 0 -18 4 -20 28 -15 49 12 112 11 112 -1
0 -5 -31 -29 -69 -55 -47 -32 -92 -54 -144 -67 -99 -27 -128 -41 -125 -60 2
-9 20 -20 41 -25 20 -5 37 -15 37 -22 0 -25 -74 -72 -154 -98 -88 -28 -138
-62 -114 -77 7 -5 23 -9 35 -9 58 0 67 -22 27 -70 -32 -38 -87 -66 -153 -81
-53 -11 -92 -42 -75 -59 6 -6 30 -14 53 -18 l43 -7 -53 -50 c-30 -27 -59 -61
-65 -74 -7 -18 -37 -37 -114 -71 -108 -48 -134 -70 -112 -92 10 -10 28 -8 90
14 125 44 158 49 184 28 l23 -18 -45 -50 c-51 -56 -67 -80 -139 -204 -51 -87
-61 -121 -40 -134 6 -3 24 3 40 15 l29 22 0 -49 c0 -36 -10 -69 -40 -129 -22
-45 -42 -99 -46 -122 -6 -37 -4 -41 14 -41 11 0 30 11 40 25 11 14 23 22 26
17 3 -6 2 -56 -3 -113 -7 -94 -12 -112 -49 -186 -44 -87 -54 -126 -27 -103 24
20 85 48 89 41 11 -18 10 -140 -2 -153 -19 -23 -63 -155 -69 -208 -7 -57 6
-68 37 -35 13 14 28 25 33 25 21 0 -2 -101 -45 -195 -55 -119 -69 -175 -44
-175 9 0 25 14 34 31 9 16 25 45 36 62 l19 32 9 -25 c17 -45 0 -149 -36 -220
-51 -100 -98 -218 -91 -230 12 -20 31 -8 65 43 43 64 70 73 70 25 0 -18 -9
-53 -20 -77 -42 -91 -10 -110 62 -37 44 45 95 71 86 45 -3 -8 -15 -15 -27 -15
-30 -2 -46 -26 -73 -108 -15 -44 -37 -85 -63 -114 -43 -49 -122 -92 -170 -92
-38 0 -91 -32 -98 -59 -7 -29 8 -35 42 -15 28 17 61 14 61 -5 0 -5 -10 -22
-23 -36 -20 -24 -25 -25 -49 -15 -29 13 -58 8 -58 -11 0 -6 9 -13 20 -16 29
-8 25 -27 -11 -57 -47 -40 -84 -56 -152 -67 -63 -10 -95 -28 -83 -48 12 -18
101 -12 152 9 26 12 54 18 61 15 21 -7 50 11 57 37 3 13 26 38 50 55 25 18 62
59 83 90 20 32 64 83 96 113 33 30 87 82 120 115 63 63 71 52 19 -29 -13 -22
-31 -55 -39 -73 -7 -19 -25 -38 -39 -43 l-25 -10 7 -107 c4 -60 11 -119 16
-132 16 -43 38 -3 49 85 8 63 20 100 59 179 28 55 57 134 66 175 22 97 39 137
65 150 27 15 51 -1 120 -80 30 -33 58 -60 65 -60 6 0 16 11 22 25 18 39 -1 72
-84 151 -83 78 -87 87 -100 228 -8 92 -2 93 51 10 36 -57 65 -71 65 -31 0 29
-51 136 -92 193 l-31 44 12 83 c15 99 24 119 40 88 14 -26 38 -27 46 -2 6 21
-16 84 -34 95 -29 18 -79 185 -81 269 0 33 3 33 40 5 16 -12 33 -19 36 -15 11
10 -23 153 -47 199 -17 34 -45 204 -35 216 2 1 19 -16 40 -38 66 -71 82 -44
36 62 -70 161 -91 228 -71 228 6 0 26 -17 45 -38 26 -27 38 -34 46 -26 8 8 1
42 -29 131 -40 117 -51 183 -31 183 6 0 19 -5 30 -12 29 -19 35 -3 32 82 -2
76 -2 78 29 104 37 31 49 26 49 -20 0 -39 15 -74 31 -74 18 0 38 65 50 161 12
103 39 164 93 211 48 42 60 37 52 -22 -5 -40 -4 -52 9 -56 26 -10 41 13 64
101 31 117 134 263 170 241 10 -7 0 -61 -17 -93 -19 -35 -15 -55 11 -51 30 4
74 87 83 156 3 29 14 63 24 75 23 29 98 82 106 74 3 -3 -2 -27 -12 -52 -14
-38 -15 -48 -4 -55 7 -4 19 -6 27 -3 19 7 49 69 64 129 23 93 82 186 108 169
6 -3 11 -23 11 -44 0 -21 6 -44 14 -50 11 -9 18 -5 34 21 12 19 26 56 33 83
20 83 30 103 70 140 44 40 59 44 59 15 0 -38 47 -18 79 33 11 18 25 56 31 84
6 27 24 65 39 83 l28 34 35 -22 c45 -28 69 -28 116 2 20 13 62 36 92 51 30 15
78 49 107 76 28 27 56 49 62 49 5 0 22 -11 37 -24 l28 -23 -77 -81 c-64 -67
-77 -86 -77 -114 0 -45 48 -141 104 -208 26 -31 45 -63 44 -74 -2 -12 -37 -37
-102 -72 -54 -30 -134 -80 -179 -111 -101 -73 -274 -244 -350 -346 -31 -42
-82 -110 -113 -151 -97 -131 -244 -392 -244 -436 0 -8 -39 -67 -86 -130 -100
-134 -120 -168 -106 -182 15 -15 94 33 131 80 17 20 49 61 71 90 23 29 66 69
96 88 36 23 54 41 54 55 0 17 -4 19 -35 13 -33 -6 -35 -5 -35 22 0 48 89 209
159 288 35 39 77 95 93 124 40 70 166 212 259 290 297 253 389 295 660 309 95
5 98 4 200 -37 57 -23 133 -60 169 -83 133 -86 310 -237 310 -264 0 -22 -40
-31 -189 -44 -132 -11 -265 -9 -413 7 -49 6 -58 4 -58 -10 0 -29 78 -59 165
-65 168 -10 387 4 525 35 53 11 166 -123 266 -314 24 -48 53 -100 64 -117 10
-16 20 -48 22 -69 l3 -39 -101 -17 c-56 -10 -106 -20 -112 -24 -5 -3 -70 -15
-143 -25 -74 -11 -180 -27 -235 -36 -274 -41 -690 -34 -1169 21 -158 18 -214
30 -284 60 -55 24 -71 24 -71 -2 0 -44 90 -114 147 -114 34 0 219 -22 383 -45
221 -31 344 -38 595 -32 248 6 358 17 545 56 52 11 127 23 165 27 39 4 103 20
143 36 98 39 129 35 157 -18 31 -59 131 -181 155 -189 11 -3 24 -3 30 0 15 9
12 61 -5 75 -21 18 -72 110 -80 145 -17 73 -69 205 -104 265 -21 36 -49 90
-63 120 -47 104 -294 387 -458 524 -94 79 -274 198 -334 221 -25 10 -46 22
-46 28 0 5 16 27 36 49 34 38 94 149 94 175 0 56 -26 119 -72 175 l-50 60 58
60 c33 33 67 64 77 69 24 14 55 -6 63 -39 3 -15 9 -36 14 -48 10 -25 67 -54
105 -54 39 0 85 -50 85 -93 0 -50 35 -177 65 -236 38 -77 92 -67 66 12 -7 19
-9 42 -5 51 6 15 16 9 61 -36 42 -41 57 -65 70 -108 8 -30 29 -81 45 -113 24
-48 33 -58 51 -55 20 3 22 8 19 56 -1 31 2 52 8 52 5 0 27 -16 49 -35 26 -24
42 -50 51 -82 19 -69 64 -165 87 -186 18 -16 22 -16 33 -2 10 12 9 24 -9 66
-26 59 -22 79 14 79 34 0 33 24 -4 81 -33 51 -70 86 -127 122 -23 14 -64 48
-93 76 -29 28 -71 62 -94 76 -23 13 -57 44 -75 67 -103 134 -122 163 -122 184
0 32 39 57 76 48 45 -10 201 -101 284 -164 41 -32 97 -71 124 -89 83 -52 140
-34 102 32 l-16 29 27 -7 c56 -14 101 -17 107 -7 25 40 -97 101 -267 133 -38
7 -60 17 -67 29 -13 24 -4 48 21 55 48 16 -2 50 -86 59 -33 4 -84 14 -114 22
-34 10 -71 13 -96 9 l-42 -6 -11 56 c-7 31 -30 98 -52 148 -41 93 -85 147
-118 147 -37 0 -35 10 27 141 l22 46 63 -62 c75 -76 150 -125 188 -125 60 0
92 30 126 120 l10 26 193 3 c120 2 199 7 207 13 7 6 12 21 10 32 -3 19 -11 21
-73 24 -38 2 -74 7 -78 11 -4 4 23 23 60 41 49 24 79 33 108 31 198 -13 265 2
265 61 0 19 -4 20 -71 13 -65 -7 -71 -6 -67 11 2 10 22 33 46 50 34 27 48 32
76 27 50 -8 161 6 183 23 17 13 17 15 0 28 -10 8 -42 17 -72 21 -30 3 -55 10
-55 15 0 18 94 81 143 95 28 8 79 15 113 15 93 0 113 42 33 73 -46 18 -48 28
-13 56 33 26 76 37 174 46 41 3 85 13 97 21 33 21 19 44 -28 44 -47 0 -55 26
-11 36 15 3 47 12 72 20 25 8 92 18 149 24 l105 10 29 -27 c28 -27 29 -30 25
-113 -2 -70 0 -85 12 -85 9 0 21 19 30 49 13 40 18 46 28 34 33 -40 45 -105
48 -243 3 -155 11 -172 48 -96 28 59 46 64 46 14 0 -21 8 -60 19 -88 15 -40
17 -62 10 -110 -13 -106 -11 -137 9 -133 9 2 26 20 37 41 11 20 22 37 25 37 3
0 15 -22 26 -49 21 -48 21 -50 6 -178 -17 -138 -14 -163 17 -163 21 0 26 14
36 103 8 59 21 80 36 56 5 -8 22 -50 39 -93 l30 -79 -37 -114 c-28 -86 -35
-118 -27 -130 22 -35 30 -28 70 60 9 20 21 37 25 37 9 0 23 -62 22 -105 0 -38
-21 -106 -67 -216 -20 -48 -33 -94 -30 -103 9 -24 43 -20 53 7 21 54 39 104
47 131 12 38 34 46 34 12 0 -14 5 -57 12 -94 9 -55 9 -90 -2 -170 -11 -82 -11
-104 0 -117 39 -47 66 10 78 169 7 89 13 121 26 134 16 16 18 16 31 -1 7 -10
18 -51 25 -90 34 -223 42 -258 66 -285 l24 -27 24 29 c19 23 29 27 50 22 35
-9 87 -88 127 -196 18 -47 37 -88 43 -92 11 -8 39 19 62 58 11 18 15 16 53
-24 26 -27 41 -52 41 -68 0 -34 27 -91 47 -98 9 -4 30 -1 49 6 45 16 58 3 110
-108 45 -97 65 -116 88 -83 12 18 11 29 -11 97 -13 42 -28 81 -34 86 -5 6 -9
17 -9 25 1 12 7 9 21 -9 53 -65 105 -112 131 -117 37 -7 95 -75 110 -128 15
-51 33 -73 67 -77 22 -3 32 -16 66 -85 22 -45 50 -92 63 -105 12 -14 22 -32
22 -41 0 -9 9 -41 21 -72 22 -59 44 -73 94 -61 46 12 50 39 14 116 -31 68 -31
69 -13 93 11 14 31 33 46 42 32 18 50 12 106 -37 35 -30 61 -31 91 -3 12 12
12 17 -3 39 -9 14 -21 26 -26 26 -5 0 -44 34 -87 76 -43 42 -99 87 -125 100
-33 17 -52 34 -62 57 -20 48 -54 74 -121 91 -73 19 -107 43 -117 84 -7 27 -20
38 -76 66 -91 46 -108 67 -116 143 -5 60 -5 63 17 63 31 0 67 11 67 20 0 15
-82 40 -164 49 -84 10 -118 22 -166 60 l-25 20 28 10 c60 23 8 75 -91 90 -34
6 -80 20 -103 33 l-40 22 27 14 26 14 -24 25 c-30 33 -86 61 -138 69 -62 10
-130 77 -130 129 0 25 50 18 105 -15 114 -68 130 -19 27 80 -56 53 -74 79 -99
140 -18 41 -30 76 -29 77 1 2 21 -4 44 -13 44 -18 72 -14 72 10 0 16 -4 21
-80 86 -126 110 -150 134 -150 151 0 15 7 17 41 16 25 -1 44 3 46 10 2 7 -34
50 -80 96 -46 46 -94 104 -105 129 -21 43 -29 98 -15 98 4 0 29 -21 55 -47 34
-34 51 -44 59 -36 26 26 -55 146 -136 199 -46 31 -60 48 -89 108 -19 39 -33
72 -32 74 2 1 29 -10 60 -24 43 -20 61 -23 69 -15 20 20 -16 63 -108 126 -50
35 -93 73 -102 90 -9 17 -22 38 -31 48 -14 16 -11 17 45 17 48 0 64 4 79 21
18 20 18 21 -1 35 -10 8 -28 14 -39 14 -12 0 -55 20 -96 44 -134 79 -171 118
-148 155 19 31 -2 46 -133 93 -108 39 -120 41 -217 39 -85 -1 -104 1 -109 14
-8 23 38 67 107 104 31 17 63 37 70 45 15 19 5 36 -21 36 -30 0 -137 -57 -201
-106 -31 -24 -63 -44 -72 -44 -20 0 -20 5 1 36 15 23 15 27 0 41 -14 14 -20
12 -66 -22 -28 -20 -68 -57 -88 -82 -42 -51 -109 -91 -126 -74 -34 34 -118
-33 -131 -103 -5 -25 -19 -42 -66 -74 -32 -23 -63 -42 -68 -42 -4 0 -19 12
-31 26 -29 33 -33 29 -136 -123 -53 -78 -115 -115 -115 -67 0 8 -5 14 -11 14
-26 0 -53 -26 -94 -89 -70 -108 -162 -178 -185 -140 -19 29 -84 -65 -109 -158
-10 -36 -63 -103 -82 -103 -4 0 -47 28 -95 63 -49 35 -106 73 -127 86 -23 14
-39 33 -43 49 -3 15 -7 36 -9 47 -2 11 0 38 5 60 5 22 17 138 26 257 12 163
14 238 7 305 -6 48 -8 150 -5 226 l4 137 99 51 c109 56 144 90 162 157 10 37
18 48 46 59 29 12 37 12 65 -1 74 -35 175 -46 196 -21 18 22 2 35 -58 49 -28
6 -51 16 -52 21 -2 6 21 24 50 41 45 26 67 32 144 38 99 7 138 25 144 66 3 19
0 22 -15 16 -38 -15 -113 -19 -113 -6 0 7 35 48 77 91 l76 79 92 0 c76 0 95 3
108 18 30 33 21 42 -42 42 -33 0 -63 5 -66 10 -10 16 27 72 62 96 19 13 62 25
113 32 100 14 134 29 138 61 l4 24 -81 -7 c-53 -5 -81 -4 -81 3 0 6 28 39 63
75 65 67 66 67 182 81 53 6 129 48 122 68 -2 7 -32 14 -74 17 -39 3 -74 8 -78
12 -4 3 12 25 35 47 40 39 129 81 171 81 26 0 85 25 94 40 12 19 -15 30 -72
30 -41 0 -54 4 -63 19 -18 34 -11 50 28 70 56 29 116 101 94 115 -4 2 -35 -9
-69 -24 -165 -75 -172 -39 -34 157 19 26 53 71 76 98 39 47 65 86 65 99 0 13
-28 5 -62 -19 -36 -24 -37 -25 -48 -6 -5 11 -10 44 -10 73 0 55 9 77 68 164
30 45 43 94 24 94 -5 0 -27 -16 -49 -35 -23 -19 -44 -35 -47 -35 -3 0 -6 26
-6 58 0 49 5 66 35 112 54 86 46 114 -21 75 -43 -25 -43 -25 -54 -5 -15 28
-26 160 -13 160 17 0 73 62 73 81 0 29 -27 23 -73 -16 -22 -19 -44 -35 -48
-35 -4 0 -11 37 -16 83 l-9 82 41 48 c40 48 115 147 135 180 9 15 7 17 -17 17
-22 0 -44 -17 -100 -76 -39 -42 -76 -73 -82 -69 -6 3 -11 30 -11 60 0 30 -5
66 -12 80 -10 23 -8 29 24 63 48 51 68 83 68 109 0 32 -12 29 -65 -17 -26 -22
-51 -38 -56 -35 -5 4 -9 28 -9 55 0 52 -7 64 -29 50 -11 -6 -14 -37 -14 -122
1 -116 22 -237 64 -358 10 -30 30 -109 44 -175 13 -66 29 -136 35 -155 25 -83
42 -216 47 -365 6 -184 -6 -285 -43 -361 -55 -116 -84 -94 -84 65 -1 71 -6
119 -16 146 -21 53 -40 130 -59 239 -9 49 -25 114 -36 145 -11 31 -24 103 -30
161 -5 58 -19 146 -29 195 -30 143 -40 195 -40 218 -1 12 -9 40 -20 62 -11 22
-19 51 -20 65 0 31 -26 70 -46 70 -17 0 -18 12 -2 28 8 8 8 28 0 81 -7 38 -12
83 -12 100 l0 30 57 -35 c54 -32 60 -34 123 -28 91 9 122 26 179 102 56 74 54
72 94 107 35 31 31 49 -11 53 -23 2 -32 8 -32 21 0 26 26 45 100 76 36 15 73
34 83 43 24 22 21 51 -8 64 -14 6 -25 18 -25 25 0 24 152 166 210 197 37 21
75 32 119 35 35 3 66 11 68 17 2 6 -8 25 -22 42 -24 29 -25 32 -8 40 10 5 51
17 92 26 219 50 362 124 565 293 48 41 112 85 142 98 59 26 80 58 65 98 -10
26 -39 53 -47 44 -3 -3 -13 -20 -22 -38 -24 -47 -46 -58 -71 -35 -28 26 -58
93 -70 161 -7 35 -20 68 -32 80 l-20 20 -20 -24 c-13 -16 -19 -39 -19 -72 0
-46 -2 -51 -36 -71 -27 -16 -44 -38 -64 -81 -22 -50 -33 -62 -61 -71 -27 -9
-38 -20 -54 -61 -33 -82 -39 -89 -63 -76 -30 16 -44 6 -69 -49 -23 -53 -61
-74 -92 -51 -9 6 -22 14 -28 17 -7 3 -59 -24 -115 -60 -153 -99 -178 -92 -178
48 0 79 -2 88 -15 76 -8 -8 -25 -44 -39 -80 -21 -55 -26 -61 -32 -42 -12 43
-36 20 -64 -63 -33 -99 -50 -130 -91 -175 l-33 -35 -9 40 c-6 22 -16 44 -23
48 -8 4 -14 19 -14 32 0 27 -7 30 -29 16 -12 -7 -12 -15 -2 -38 8 -20 9 -43 1
-82 -5 -30 -10 -73 -10 -97 0 -37 -5 -46 -35 -69 -39 -31 -55 -26 -55 16 0 33
-16 69 -30 69 -17 0 -29 -37 -44 -136 -23 -151 -47 -197 -60 -114 -12 75 -41
41 -51 -60 -7 -68 -42 -190 -54 -190 -23 0 -102 64 -127 104 -30 47 -50 58
-60 31 -5 -12 44 -181 77 -263 13 -34 12 -49 -3 -34 -20 20 -38 14 -38 -14 0
-31 54 -129 75 -138 22 -8 18 -43 -5 -56 -17 -9 -19 -17 -14 -53 9 -54 27 -91
75 -149 48 -58 59 -85 59 -151 l-1 -52 -28 34 c-19 23 -33 32 -45 28 -26 -10
-19 -54 17 -94 66 -76 107 -140 107 -171 0 -16 7 -49 15 -72 8 -23 15 -46 15
-51 0 -17 -23 -9 -48 18 l-25 27 -10 -21 c-10 -23 6 -56 77 -155 23 -32 37
-67 46 -113 7 -36 10 -68 7 -71 -3 -3 -17 2 -31 11 -51 34 -64 -17 -17 -71 37
-41 78 -110 86 -146 5 -21 2 -29 -15 -38 l-22 -12 21 -22 c24 -26 16 -38 -31
-50 -25 -6 -28 -3 -32 26 -3 18 -7 51 -8 73 -2 28 -8 40 -18 40 -11 0 -20 -29
-36 -105 -24 -117 -56 -190 -104 -235 l-32 -30 8 35 c8 39 8 69 -1 78 -15 15
-39 -20 -76 -108 -47 -115 -106 -205 -134 -205 -13 0 -21 8 -23 23 -5 31 -30
28 -44 -5 -7 -16 -22 -41 -34 -58 -11 -16 -29 -52 -38 -78 -19 -50 -109 -157
-122 -145 -4 5 -1 25 6 47 13 41 8 61 -15 61 -17 0 -50 -53 -63 -103 -13 -48
-60 -122 -106 -166 -39 -38 -67 -35 -42 5 32 47 13 103 -23 70 -23 -21 -124
-298 -119 -327 5 -36 23 -32 37 8 17 46 144 171 287 282 103 81 415 390 501
496 67 84 213 224 241 231 18 5 31 -1 56 -30 19 -20 42 -36 53 -36 29 0 63
-29 63 -55 0 -13 -16 -43 -36 -66 -20 -24 -56 -71 -80 -105 -24 -34 -60 -74
-79 -88 -19 -15 -52 -53 -74 -84 -112 -165 -429 -501 -551 -585 -25 -17 -74
-42 -110 -55 -36 -14 -87 -33 -115 -43 -70 -26 -98 -24 -133 10 -64 59 -144
61 -204 4 -31 -30 -28 -33 -57 67 -21 73 -100 266 -131 320 -11 19 -39 72 -62
118 -31 60 -67 110 -129 177 l-87 93 14 41 c9 26 12 57 8 81 -10 61 10 57 165
-30 15 -9 40 -26 56 -38 81 -64 238 16 301 153 35 76 50 194 35 271 l-13 62
37 34 c23 21 39 47 45 73 32 136 -20 254 -135 311 -44 21 -55 31 -55 51 0 56
-52 137 -152 235 -54 53 -98 105 -98 115 0 10 28 53 63 95 34 43 74 96 89 120
15 24 46 66 70 94 24 28 80 103 125 165 81 114 406 459 431 459 7 0 58 44 115
98 56 54 116 107 133 119 38 27 82 108 90 166 5 34 2 52 -12 76 -16 27 -17 36
-5 73 32 110 41 164 52 307 13 158 10 192 -32 378 -5 23 -9 66 -9 95 0 86 -70
373 -129 524 -34 87 -69 134 -129 174 -58 38 -95 39 -132 2 -64 -65 -66 -211
-5 -358 106 -254 202 -561 216 -693 19 -170 20 -368 3 -411 -17 -43 -51 -70
-87 -70 -23 0 -46 -21 -297 -286 -52 -55 -117 -129 -143 -164 -26 -36 -67 -90
-92 -120 -191 -240 -366 -481 -425 -587 -34 -62 -65 -113 -70 -113 -4 0 -24
22 -43 48 -43 61 -106 112 -178 146 -64 30 -82 32 -99 11 -11 -13 -15 -13 -41
0 -39 20 -68 19 -109 -6 -50 -31 -121 -88 -153 -123 -23 -26 -29 -29 -37 -16
-61 97 -115 186 -141 235 -17 33 -53 92 -79 130 -26 39 -61 97 -79 130 -18 33
-57 92 -85 130 -29 39 -68 93 -86 120 -18 28 -63 88 -100 135 -37 47 -82 108
-100 135 -46 68 -251 277 -327 333 -69 50 -93 89 -93 151 0 50 29 220 41 243
5 9 9 26 9 37 0 10 10 41 21 68 12 26 45 116 74 198 89 252 100 278 158 380
32 55 64 120 73 145 9 25 22 60 30 78 19 44 17 89 -5 138 -21 45 -54 74 -86
74 -11 0 -39 -10 -63 -21z m52 -80 c22 -17 27 -28 24 -58 -4 -46 -25 -51 -67
-16 -32 28 -40 62 -19 83 17 17 32 15 62 -9z m-79 -133 l59 -53 -17 -27 c-22
-33 -33 -33 -88 2 -69 44 -75 56 -56 97 9 19 22 35 29 35 7 0 40 -24 73 -54z
m2513 43 c67 -23 36 -83 -41 -77 -50 4 -68 37 -37 68 23 23 35 24 78 9z m119
-177 c9 -39 -26 -62 -93 -62 -42 0 -59 5 -76 22 l-21 21 27 24 c15 12 35 23
44 23 9 0 31 9 47 20 l30 20 18 -21 c9 -12 20 -33 24 -47z m-2731 -3 c3 -6 26
-20 50 -31 49 -21 55 -41 24 -81 -26 -33 -78 -42 -127 -22 -20 9 -41 21 -45
28 -27 42 13 117 62 117 16 0 32 -5 36 -11z m2773 -137 c6 -15 13 -41 14 -57
2 -25 -2 -30 -33 -37 -58 -13 -110 0 -121 30 -14 37 -6 48 53 71 69 26 74 26
87 -7z m-2834 -62 c26 -11 55 -20 66 -20 27 0 24 -18 -11 -73 -33 -53 -53 -58
-95 -25 -38 30 -55 74 -43 110 12 33 22 34 83 8z m2893 -133 c5 -43 -24 -70
-66 -63 -50 8 -84 33 -80 59 4 25 35 36 98 34 42 -2 45 -4 48 -30z m-2951 -58
c36 -17 43 -26 43 -49 0 -75 -34 -99 -84 -59 -22 17 -26 29 -26 68 0 44 5 61
19 61 2 0 24 -9 48 -21z m2978 -142 l7 -58 -48 3 c-48 3 -48 3 -63 50 -8 27
-12 50 -9 53 9 9 92 22 100 16 3 -3 9 -32 13 -64z m-3011 -57 c14 -5 26 -15
26 -22 0 -16 -33 -98 -40 -98 -3 0 -15 8 -28 18 -20 15 -21 23 -16 65 7 50 14
54 58 37z m4777 -79 c34 -34 36 -54 12 -98 -19 -34 -78 -83 -100 -83 -34 0
-32 83 6 183 14 36 44 35 82 -2z m-1757 -17 c10 -26 7 -69 -6 -82 -7 -7 -22
-12 -35 -12 -17 0 -24 8 -32 38 -6 20 -11 42 -11 49 0 25 74 32 84 7z m-3064
-92 l23 -19 -16 -82 c-10 -45 -17 -97 -17 -115 0 -44 -9 -66 -26 -66 -18 0
-18 31 -1 96 7 28 10 60 6 70 -11 27 -11 134 0 134 5 0 19 -8 31 -18z m-1657
-14 c16 -12 15 -18 -12 -75 -33 -70 -41 -71 -83 -16 -31 41 -26 62 20 87 34
19 53 20 75 4z m6289 -55 c31 -28 23 -60 -22 -83 -47 -24 -50 -24 -50 -6 0 18
39 106 47 106 4 0 15 -7 25 -17z m-1568 -29 c20 -51 -4 -167 -33 -162 -13 3
-17 18 -19 77 -3 73 6 101 33 101 7 0 16 -7 19 -16z m-4605 -28 c10 -12 7 -23
-15 -55 -29 -44 -40 -48 -68 -28 -21 16 -16 42 15 75 23 25 51 28 68 8z m6021
-102 c0 -15 -38 -28 -67 -22 -16 3 -15 7 10 32 23 22 31 25 42 16 8 -7 15 -19
15 -26z m-5913 18 c17 -11 26 -63 14 -81 -7 -11 -15 -11 -52 1 -53 18 -58 30
-25 63 26 26 42 30 63 17z m151 -82 c77 -37 37 -69 -43 -36 -33 14 -44 34 -28
49 11 11 27 8 71 -13z m5582 10 c19 -12 -19 -27 -92 -36 l-53 -6 34 26 c36 26
83 34 111 16z m-1250 -71 c0 -23 -23 -89 -32 -89 -9 0 -11 61 -2 84 7 18 34
22 34 5z m-3005 -48 c98 -63 307 -263 413 -395 185 -232 440 -601 532 -771 24
-44 56 -98 70 -120 40 -59 90 -173 90 -206 0 -40 34 -73 60 -59 18 10 25 24
32 75 3 19 11 20 108 20 58 -1 177 -3 266 -5 l161 -5 -5 -46 -4 -46 78 -18
c100 -24 136 -52 241 -188 71 -93 83 -115 83 -147 0 -22 -6 -42 -12 -47 -7 -4
-115 -7 -240 -8 -166 0 -230 -3 -239 -12 -7 -7 -10 -15 -7 -18 3 -3 86 -10
184 -15 246 -14 246 -14 200 -75 l-25 -32 -143 -6 c-157 -6 -297 -24 -313 -39
-7 -7 29 -9 108 -5 148 7 300 -7 339 -30 30 -18 77 -88 66 -99 -4 -3 -85 4
-181 15 -195 23 -279 26 -308 10 -25 -13 -16 -29 17 -29 23 0 24 -2 24 -69 0
-64 2 -71 27 -91 22 -17 36 -20 68 -15 22 3 56 7 75 8 56 2 223 -31 294 -57
35 -14 67 -22 70 -19 15 15 3 44 -23 58 -32 16 -156 40 -268 51 -40 3 -77 12
-82 18 -6 7 -13 31 -17 54 -8 50 -19 47 141 26 66 -9 176 -19 245 -22 l125 -7
-1 -91 c0 -81 -4 -99 -30 -150 -16 -31 -49 -79 -72 -106 -58 -64 -87 -64 -192
-3 -128 75 -323 132 -485 142 -74 4 -113 0 -215 -21 -164 -35 -157 -32 -209
-81 -72 -67 -132 -95 -207 -95 -57 0 -66 3 -111 38 -92 74 -150 156 -151 218
0 18 -6 50 -12 73 -6 23 -8 46 -5 51 4 6 30 25 58 44 47 30 168 146 178 171 2
6 35 18 72 27 38 10 78 24 89 33 20 14 21 15 3 21 -16 7 -107 -12 -156 -31
-12 -4 -19 4 -28 35 -6 22 -27 73 -46 112 -19 40 -35 78 -35 84 0 6 23 40 50
75 28 34 69 98 91 141 38 71 104 148 129 148 6 0 27 -16 46 -36 37 -37 60 -40
77 -12 14 21 1 46 -64 123 -28 33 -69 91 -92 130 -22 38 -76 106 -120 150 -43
44 -94 102 -113 130 -18 28 -73 95 -121 148 -48 53 -110 123 -138 155 -27 32
-132 148 -232 258 -100 110 -203 227 -227 260 -52 70 -106 168 -106 194 0 21
37 70 53 70 7 0 39 -17 72 -39z m3919 2 c3 -10 11 -25 17 -34 23 -30 2 -64
-65 -107 -98 -64 -156 -129 -267 -302 -36 -55 -83 -109 -132 -153 -46 -42 -84
-86 -98 -114 -16 -32 -24 -41 -30 -31 -16 24 3 81 58 175 88 154 139 223 246
333 56 58 130 138 165 178 63 72 94 88 106 55z m-4904 -72 c0 -15 -16 -22 -34
-15 -25 9 -19 24 9 24 14 0 25 -4 25 -9z m3983 -110 c23 -23 -105 -159 -368
-391 -158 -139 -294 -285 -396 -424 -49 -66 -106 -143 -126 -169 -21 -26 -54
-74 -73 -107 -34 -57 -208 -265 -216 -257 -11 10 136 310 166 337 3 3 47 68
99 145 100 149 127 185 207 275 28 31 75 92 104 136 30 43 88 115 129 160 42
44 110 118 151 163 41 45 95 98 120 118 44 35 46 35 119 30 40 -3 78 -10 84
-16z m537 -490 c0 -11 -58 -61 -71 -61 -12 0 -3 17 24 48 21 22 47 30 47 13z
m-3749 -292 c-22 -101 -52 -220 -66 -264 -36 -116 -82 -287 -104 -390 -10 -49
-26 -119 -35 -155 -27 -114 -56 -258 -56 -283 0 -13 -14 -66 -30 -118 -17 -52
-33 -112 -37 -134 -10 -68 -20 -75 -39 -30 -38 90 -26 365 26 595 44 193 130
643 145 755 22 165 17 155 81 155 69 0 120 21 136 56 25 55 18 -4 -21 -187z
m1747 -273 c36 -19 165 -153 158 -164 -3 -6 -26 -5 -53 0 -27 6 -58 12 -70 14
-19 4 -23 11 -23 43 0 26 -9 51 -30 79 -32 44 -27 51 18 28z m-128 -33 c66
-45 69 -49 62 -77 -9 -39 -30 -46 -144 -46 -122 0 -126 3 -79 66 27 39 86 94
99 94 4 0 32 -17 62 -37z m864 -753 c14 -17 30 -50 37 -72 12 -47 4 -128 -14
-128 -29 1 -121 40 -141 59 l-21 22 23 39 c20 35 21 41 7 46 -22 9 -19 29 8
47 36 26 72 21 101 -13z m-1609 -6 c19 -8 40 -46 50 -92 l7 -34 -25 17 c-24
15 -26 15 -41 -6 -12 -17 -108 -79 -123 -79 -1 0 -3 29 -3 64 0 60 3 67 34
100 33 35 63 44 101 30z m-1128 -531 c27 -32 60 -72 73 -90 14 -17 50 -62 81
-100 31 -37 58 -73 60 -79 11 -28 185 -218 379 -413 200 -201 340 -367 340
-404 0 -8 -18 -31 -41 -51 -46 -42 -47 -42 -151 11 -55 28 -84 53 -161 141
-104 117 -185 224 -292 388 -91 139 -108 164 -183 275 -35 51 -81 127 -102
168 -22 42 -53 96 -69 121 -34 50 -37 60 -19 78 21 21 35 13 85 -45z m1932
-116 c13 -34 37 -50 78 -51 46 -1 53 18 14 39 -45 23 -38 33 17 27 78 -8 92
-17 92 -55 0 -19 -5 -48 -11 -66 l-11 -31 -132 0 c-86 0 -152 -5 -190 -15 -44
-12 -62 -13 -72 -4 -18 15 -19 109 -1 132 15 20 105 45 165 46 35 1 44 -3 51
-22z m105 -252 c15 -8 38 -15 49 -15 34 0 98 -36 168 -94 63 -51 69 -61 151
-227 152 -307 173 -390 204 -794 28 -360 14 -770 -37 -1065 -24 -137 -84 -302
-195 -536 -29 -62 -38 -72 -65 -78 -67 -13 -209 -3 -209 16 0 5 21 31 47 59
l47 50 76 -7 c63 -5 78 -3 89 10 23 27 6 43 -53 50 -40 5 -56 12 -56 23 0 21
88 121 122 139 22 11 28 22 28 46 0 19 18 62 46 110 58 99 55 113 -22 103 -82
-10 -327 -23 -340 -18 -15 5 8 68 39 107 22 26 25 27 182 36 166 9 236 23 215
44 -6 6 -68 12 -157 15 l-145 3 78 79 78 78 70 3 c82 4 96 20 30 38 -25 7 -48
19 -51 26 -2 7 14 43 36 80 70 116 100 229 72 273 -12 18 -491 24 -491 6 0
-26 59 -38 217 -46 89 -4 171 -13 183 -19 33 -18 20 -99 -19 -116 -9 -4 -101
-10 -205 -13 -128 -4 -191 -10 -193 -17 -7 -22 63 -36 215 -41 83 -3 152 -8
152 -10 0 -2 -14 -25 -31 -50 -37 -53 -70 -69 -164 -78 -93 -8 -125 -15 -125
-25 0 -16 72 -32 118 -26 l45 6 -19 -21 c-33 -37 -133 -109 -152 -109 -9 0
-23 -4 -31 -9 -12 -7 -10 -14 8 -37 26 -33 22 -62 -16 -114 -39 -53 -52 -60
-114 -60 -73 0 -97 11 -132 63 -16 23 -39 57 -52 75 -17 24 -22 41 -19 65 7
38 -10 59 -95 116 -81 55 -163 133 -186 175 -11 20 -25 36 -32 36 -22 0 -72
73 -83 122 -13 50 -32 60 -38 18 -7 -48 10 -90 70 -166 100 -128 145 -174 229
-236 58 -42 79 -64 79 -80 1 -61 98 -203 181 -264 26 -18 51 -34 56 -34 5 0
37 11 71 25 58 23 73 25 237 25 169 0 175 -1 175 -20 0 -12 -18 -40 -39 -63
l-39 -41 -173 -4 c-111 -3 -191 0 -226 7 -73 17 -83 7 -36 -41 l38 -39 176 7
c116 4 178 3 182 -3 4 -6 -15 -40 -42 -75 -36 -48 -58 -67 -80 -71 -32 -7
-115 4 -179 24 -45 13 -72 7 -72 -16 0 -21 48 -40 140 -55 41 -7 78 -14 82
-17 4 -2 -17 -28 -47 -58 -40 -41 -61 -55 -82 -55 -64 0 -218 117 -372 283
-115 124 -156 182 -172 242 -12 45 -27 59 -47 43 -18 -16 -7 -59 36 -142 48
-93 261 -317 438 -462 l41 -34 171 0 c110 0 173 -4 177 -11 9 -13 -21 -47 -60
-66 -16 -9 -42 -30 -57 -48 -37 -44 -127 -69 -229 -63 -63 4 -82 10 -129 39
-70 43 -259 232 -285 284 -11 22 -28 52 -38 67 -31 47 -107 230 -113 272 -4
25 -16 51 -31 65 -18 17 -23 31 -20 49 3 14 -1 46 -9 72 -59 199 -98 561 -91
855 5 234 20 403 41 473 8 26 24 88 36 137 19 81 36 123 102 250 11 22 28 54
36 70 65 130 102 186 167 250 94 92 145 135 160 135 7 0 24 9 39 21 38 30 70
37 161 38 53 1 90 -4 109 -14z m-344 -49 c0 -3 -4 -8 -10 -11 -5 -3 -10 -1
-10 4 0 6 5 11 10 11 6 0 10 -2 10 -4z m1151 -765 c36 -36 37 -65 3 -96 -29
-27 -128 -68 -153 -63 -11 2 -17 17 -19 49 -2 38 2 52 25 79 26 31 73 59 101
60 8 0 27 -13 43 -29z m-1721 9 c39 -21 42 -44 20 -137 -28 -121 -30 -122 -77
-91 -21 14 -59 34 -86 46 -55 24 -63 39 -48 85 26 78 129 130 191 97z m3190
-687 c0 -21 3 -48 6 -60 5 -18 -1 -25 -33 -41 -21 -11 -47 -29 -57 -41 -11
-12 -29 -21 -42 -21 -62 0 -170 -68 -349 -220 -247 -210 -275 -235 -311 -282
-20 -26 -41 -48 -46 -48 -6 0 -16 -7 -22 -14 -18 -24 -154 -91 -241 -120 -45
-14 -111 -44 -149 -66 -109 -64 -123 -53 -47 37 98 115 268 279 360 348 51 39
116 89 144 113 28 23 55 42 60 42 6 0 33 17 61 38 28 21 83 59 121 83 39 25
108 74 154 108 102 75 311 181 358 181 31 0 33 -2 33 -37z m276 -30 c98 -33
203 -124 281 -245 24 -38 48 -68 53 -68 5 0 13 8 19 17 7 14 10 10 15 -22 18
-117 65 -232 115 -282 18 -18 30 -44 35 -72 3 -24 26 -91 50 -150 24 -58 55
-144 70 -191 28 -92 44 -123 53 -102 2 6 9 12 14 12 5 0 4 -8 -2 -18 -9 -15
-6 -32 15 -85 14 -36 26 -70 26 -76 0 -6 18 -51 40 -100 49 -109 52 -156 13
-198 -38 -39 -118 -103 -130 -103 -12 0 -33 59 -33 92 0 14 -12 70 -26 124
-15 55 -33 128 -41 163 -25 113 -63 200 -221 500 -51 95 -92 180 -92 189 0 8
-6 23 -13 31 -7 9 -21 50 -31 91 -10 41 -29 95 -41 120 -13 25 -44 89 -71 144
-40 83 -57 106 -106 147 -63 52 -102 69 -121 50 -17 -17 -27 -13 -27 9 0 41
71 52 156 23z m-4946 -88 c164 -56 273 -103 339 -148 29 -21 59 -37 65 -37 7
0 38 -18 70 -40 31 -22 60 -40 65 -40 8 0 131 -81 207 -137 28 -21 82 -60 120
-88 108 -78 216 -167 249 -205 16 -19 65 -72 107 -117 84 -88 97 -122 56 -144
-29 -16 -124 -6 -179 19 -24 10 -50 21 -56 23 -24 7 -294 217 -512 396 -101
83 -443 314 -533 359 -120 60 -144 80 -163 132 -31 88 -31 83 6 76 19 -3 90
-25 159 -49z m3107 -674 c95 -63 147 -113 158 -148 13 -45 -61 -123 -117 -123
-25 0 -82 33 -128 75 -14 12 -35 28 -47 34 -30 15 -30 51 -1 153 15 52 27 77
35 74 7 -3 52 -32 100 -65z m-1523 -70 c10 -11 20 -39 23 -63 3 -24 15 -56 26
-72 15 -21 18 -33 10 -45 -14 -22 -98 -68 -160 -87 -89 -26 -111 4 -79 110 8
26 12 63 9 81 -5 30 -1 36 37 64 51 37 107 42 134 12z m1308 -426 c45 -60 63
-124 48 -171 -15 -43 -63 -84 -101 -84 -23 0 -35 9 -64 52 -21 32 -35 65 -35
84 0 35 86 177 104 171 6 -2 28 -25 48 -52z m-1018 -126 c26 -31 30 -44 26
-89 -5 -56 -57 -117 -109 -126 -20 -4 -49 -13 -65 -21 -25 -13 -33 -13 -71 1
-49 19 -98 67 -93 91 3 17 32 35 118 73 25 11 70 38 100 61 30 22 58 41 61 41
4 0 19 -14 33 -31z m-354 -233 c0 -34 -68 -140 -127 -197 -32 -30 -92 -84
-133 -120 -41 -35 -138 -122 -216 -194 -172 -159 -259 -234 -297 -258 -17 -10
-149 -138 -295 -284 -248 -248 -267 -265 -286 -253 -12 8 -30 18 -41 24 -59
31 -99 86 -63 86 19 0 150 141 217 235 36 50 95 126 132 170 80 93 268 280
319 315 19 13 62 49 95 80 110 103 321 268 381 298 32 16 81 37 108 47 26 10
78 40 114 67 66 48 66 48 79 25 7 -12 12 -31 13 -41z m950 -51 c33 -32 55 -65
66 -97 l16 -48 -35 -63 c-51 -92 -65 -120 -71 -139 -5 -16 -20 -18 -136 -18
-154 0 -166 4 -237 87 -59 69 -73 93 -73 128 0 39 15 63 86 135 l63 65 136 -1
136 0 49 -49z m3355 -181 c33 -49 46 -58 146 -98 25 -9 44 -27 60 -57 28 -51
100 -109 135 -109 40 0 64 -18 83 -63 14 -32 32 -51 76 -77 81 -50 105 -69
105 -86 0 -17 -38 -94 -46 -94 -13 0 -46 23 -120 85 -43 37 -92 74 -109 82
-16 9 -36 24 -43 35 -7 10 -49 47 -93 83 -143 115 -280 306 -279 388 1 21 2
20 26 -8 13 -16 40 -53 59 -81z m-7786 -772 c-11 -29 -47 -72 -61 -72 -16 0
-7 23 22 57 17 18 30 38 30 44 0 6 4 8 10 4 6 -4 5 -16 -1 -33z m8780 -61 l55
-19 -34 -21 c-40 -24 -58 -17 -93 38 -24 39 -30 39 72 2z m-8909 -63 c0 -26
-35 -88 -49 -88 -6 0 -22 11 -37 24 l-28 23 44 32 c51 37 70 39 70 9z m9073
-70 c34 -23 64 -43 66 -44 9 -7 -72 -75 -85 -70 -23 9 -74 97 -74 128 0 39 18
36 93 -14z m-9199 -54 c20 -19 21 -68 2 -83 -17 -14 -41 -5 -68 26 -16 18 -16
20 8 46 29 31 37 33 58 11z m-101 -129 c20 -14 37 -29 37 -33 0 -17 -72 -112
-85 -112 -22 0 -45 29 -45 58 0 30 35 112 47 112 5 0 25 -11 46 -25z m2433
-27 c-3 -24 -8 -96 -12 -161 -5 -90 -4 -124 7 -143 10 -20 11 -27 1 -33 -23
-14 -33 -136 -22 -260 5 -64 10 -205 10 -313 0 -194 4 -233 21 -222 5 3 9 0 9
-5 0 -6 -4 -11 -10 -11 -6 0 -8 -108 -4 -312 3 -172 2 -349 -3 -393 l-8 -80
-39 -3 c-21 -2 -43 1 -49 7 -17 17 -26 209 -32 696 -3 248 -10 483 -15 523
-34 255 9 568 97 707 37 59 57 60 49 3z"/>
<path d="M4971 9660 c-41 -17 -9 -35 64 -35 60 0 99 15 82 32 -12 11 -120 14
-146 3z"/>
<path d="M4422 9603 c-35 -12 -43 -19 -40 -37 2 -17 12 -22 48 -28 25 -4 57
-10 71 -13 18 -5 31 -1 42 10 24 23 21 40 -9 64 -31 24 -53 25 -112 4z"/>
<path d="M5040 9556 c-30 -6 -64 -17 -75 -23 l-20 -12 20 -8 c11 -4 40 -7 65
-6 25 0 105 1 178 2 179 0 213 12 132 45 -49 19 -216 21 -300 2z"/>
<path d="M4345 9483 c-78 -10 -89 -18 -59 -47 21 -22 181 -23 210 -2 25 19 11
34 -42 47 -39 9 -55 9 -109 2z"/>
<path d="M5135 9440 c-122 -11 -185 -21 -185 -30 0 -16 510 -33 526 -17 16 16
-24 37 -91 46 -77 12 -130 12 -250 1z"/>
<path d="M4233 9360 c-58 -24 -4 -53 87 -48 67 3 127 29 115 48 -8 12 -172 12
-202 0z"/>
<path d="M4844 9296 c-90 -39 -85 -158 8 -181 48 -12 128 48 128 96 0 26 -33
77 -56 88 -31 14 -41 14 -80 -3z m56 -87 c0 -20 -28 -39 -47 -32 -17 6 -16 24
3 51 13 18 19 21 30 11 8 -6 14 -20 14 -30z"/>
<path d="M4272 9240 c-19 -4 -39 -13 -45 -19 -14 -14 160 -16 182 -2 41 26
-54 41 -137 21z"/>
<path d="M4320 9034 c-25 -7 -57 -14 -71 -14 -31 0 -54 -23 -45 -46 14 -36
236 18 244 59 3 14 -4 17 -40 16 -24 0 -63 -7 -88 -15z"/>
<path d="M4612 8950 c-33 -20 -62 -71 -62 -110 0 -11 15 -37 34 -57 l34 -38
56 39 c70 48 77 57 83 104 4 32 1 44 -16 61 -27 27 -85 28 -129 1z m78 -59 c0
-10 -7 -24 -15 -31 -21 -17 -39 1 -30 29 8 27 45 28 45 2z"/>
<path d="M4300 8881 c-87 -24 -165 -58 -187 -83 -22 -25 -32 -27 162 26 159
43 185 54 164 67 -21 13 -66 10 -139 -10z"/>
<path d="M4365 8765 c-123 -28 -232 -75 -220 -95 11 -17 54 -11 133 19 42 16
97 36 122 43 26 7 45 19 45 27 0 20 -12 21 -80 6z"/>
<path d="M4915 8150 c-4 -7 1 -20 13 -33 40 -39 232 -34 232 7 0 20 -18 25
-134 32 -77 5 -105 4 -111 -6z"/>
<path d="M4570 8075 c0 -11 11 -15 39 -15 45 0 62 15 28 24 -39 10 -67 7 -67
-9z"/>
<path d="M4951 7996 c-27 -32 1 -40 132 -41 90 -1 135 -6 171 -19 51 -18 74
-12 63 18 -10 26 -106 48 -232 53 -104 5 -122 3 -134 -11z"/>
<path d="M4516 7944 c-38 -21 -24 -30 62 -38 58 -5 72 -3 72 8 0 38 -86 57
-134 30z"/>
<path d="M5028 7838 c-32 -11 -36 -23 -10 -33 32 -12 324 -27 335 -16 15 15 1
40 -28 51 -34 13 -262 11 -297 -2z"/>
<path d="M4476 7789 c-55 -9 -71 -20 -62 -44 5 -13 14 -15 53 -8 49 8 102 9
138 2 26 -5 33 30 9 48 -20 14 -63 15 -138 2z"/>
<path d="M5037 7663 c-4 -3 -7 -10 -7 -14 0 -12 91 -28 200 -33 58 -2 127 -10
154 -17 36 -9 50 -9 59 0 19 19 -5 45 -54 58 -47 12 -341 18 -352 6z"/>
<path d="M4368 7609 c-39 -15 -35 -35 7 -42 33 -5 154 8 164 19 23 23 -121 43
-171 23z"/>
<path d="M5048 7474 c-34 -6 -37 -32 -5 -39 12 -3 102 -9 200 -15 98 -5 181
-12 186 -15 15 -8 21 23 7 34 -7 6 -36 15 -65 21 -61 11 -283 21 -323 14z"/>
<path d="M4303 7353 c-23 -9 -13 -31 18 -42 44 -15 101 -14 125 3 18 14 17 15
-18 30 -36 15 -99 20 -125 9z"/>
<path d="M5050 7291 c-25 -3 -44 -10 -43 -16 3 -15 60 -23 238 -33 133 -8 162
-8 175 4 20 19 3 34 -52 45 -48 9 -249 9 -318 0z"/>
<path d="M4268 7134 c-10 -3 -18 -9 -18 -14 0 -19 115 -40 174 -32 49 7 70 24
42 35 -21 8 -178 17 -198 11z"/>
<path d="M5020 7108 c-42 -17 120 -50 260 -51 171 -3 200 19 64 48 -79 17
-287 19 -324 3z"/>
<path d="M4342 6910 c-71 -8 -80 -13 -61 -36 11 -14 11 -18 -6 -30 -26 -19
-12 -31 59 -49 71 -19 66 -19 66 5 0 13 -14 29 -37 43 l-38 22 65 7 c75 7 124
24 115 38 -7 11 -66 11 -163 0z"/>
<path d="M4880 5097 c0 -28 36 -48 81 -45 54 4 59 26 9 44 -48 17 -90 17 -90
1z"/>
<path d="M4894 4999 c-3 -6 -2 -14 2 -19 8 -7 85 -18 153 -21 32 -1 48 16 31
36 -15 18 -174 22 -186 4z"/>
<path d="M7410 11063 c-60 -22 -140 -67 -140 -79 0 -21 34 -18 122 12 77 25
105 44 93 64 -6 10 -49 12 -75 3z"/>
<path d="M6220 4929 c-18 -33 -4 -64 46 -100 64 -47 277 -238 288 -258 30 -55
238 -271 261 -271 7 0 17 -11 23 -24 6 -13 53 -72 104 -131 91 -105 188 -231
188 -246 0 -4 -28 -9 -62 -12 -35 -2 -72 -6 -82 -8 -15 -3 -30 11 -58 54 -40
59 -87 94 -96 69 -2 -6 -10 -12 -17 -12 -16 0 -28 27 -15 35 6 4 10 15 10 27
0 17 -4 19 -25 14 -19 -5 -25 -2 -25 10 0 17 -120 146 -183 196 -34 27 -41 29
-64 19 -32 -14 -28 -33 26 -128 21 -37 42 -84 46 -103 15 -77 49 -98 92 -58
21 19 24 20 40 6 10 -9 27 -18 37 -20 28 -5 53 -52 66 -128 20 -105 43 -175
60 -175 12 0 15 14 15 70 0 57 3 69 15 67 31 -6 67 -72 84 -154 3 -14 18 -41
33 -58 l27 -33 -19 -31 c-81 -135 -104 -200 -85 -236 10 -18 19 -21 53 -18 36
3 42 0 45 -18 5 -35 -31 -122 -92 -224 -31 -52 -55 -104 -54 -115 5 -32 35
-29 68 6 16 18 33 29 37 25 5 -4 8 -33 8 -64 -1 -48 -7 -67 -38 -118 -62 -101
-65 -149 -10 -144 37 4 44 0 38 -19 -3 -11 -10 -45 -15 -76 -6 -37 -19 -69
-37 -92 -90 -112 -151 -219 -135 -235 16 -16 49 1 82 43 53 65 61 48 36 -72
-17 -84 -27 -101 -95 -174 -58 -61 -91 -134 -77 -170 10 -28 48 -12 81 34 112
160 39 -95 -81 -282 -52 -81 -56 -102 -16 -93 33 8 88 69 145 162 l43 69 54 0
55 0 6 -50 c3 -27 16 -71 27 -97 12 -25 25 -75 29 -110 7 -72 26 -134 50 -160
20 -22 61 -23 84 -2 16 14 19 13 43 -19 18 -24 26 -46 26 -75 0 -68 63 -202
95 -202 30 0 28 32 -5 97 -43 83 -30 104 28 43 46 -46 82 -114 82 -151 0 -14
7 -49 16 -79 29 -100 64 -127 88 -69 10 24 15 27 24 17 21 -26 62 -123 62
-148 0 -34 26 -70 50 -70 27 0 35 39 21 107 -6 31 -11 62 -11 70 0 22 25 15
52 -14 31 -34 44 -58 69 -131 22 -65 53 -102 85 -102 26 0 34 -17 34 -74 0
-47 13 -66 47 -66 25 0 37 -32 94 -265 33 -134 42 -155 65 -155 24 0 43 55 52
148 15 147 56 180 126 101 38 -41 50 -64 60 -110 7 -32 28 -42 51 -25 27 20
21 61 -20 128 -21 34 -44 86 -51 116 -15 63 -37 98 -139 211 -41 46 -75 87
-75 92 0 4 -20 22 -45 39 -25 17 -67 58 -94 91 -27 34 -66 73 -88 88 -98 66
-173 133 -173 154 1 73 28 87 119 61 73 -20 94 -11 68 30 -18 27 -45 36 -161
54 -74 11 -194 64 -203 89 -7 18 13 33 43 33 12 0 27 6 33 14 18 21 -5 33
-119 60 -96 23 -106 28 -149 70 -31 31 -40 46 -29 46 9 0 29 5 45 11 l28 11
-22 18 c-13 10 -48 26 -79 36 -31 9 -58 23 -61 31 -3 8 -13 11 -24 8 -14 -5
-24 2 -38 26 -38 62 -50 229 -17 229 17 0 60 -48 80 -88 21 -40 49 -40 54 0 4
32 -14 68 -79 165 -38 57 -49 82 -50 115 -2 66 -13 102 -31 106 -18 3 -28 -33
-49 -188 -15 -111 -20 -120 -68 -120 -30 0 -49 -8 -82 -35 -59 -50 -66 -38
-46 77 9 51 23 165 31 253 9 88 22 196 30 240 8 44 19 150 26 235 6 85 18 223
26 305 8 83 18 257 24 388 6 132 13 257 16 278 l7 40 34 -72 c21 -43 43 -73
54 -76 23 -6 24 -11 2 -36 -15 -16 -18 -38 -18 -121 1 -116 24 -187 69 -208
14 -6 26 -14 26 -18 0 -15 70 -81 80 -75 26 16 -10 131 -71 226 -39 61 -43
110 -11 124 13 5 26 21 29 34 9 35 -15 126 -39 147 -29 26 -108 191 -108 225
0 18 7 32 19 39 40 21 77 11 161 -45 45 -30 86 -52 91 -49 37 22 -42 104 -173
179 -80 47 -188 140 -188 163 0 9 15 10 55 6 50 -6 55 -5 55 13 0 22 -65 64
-181 116 -132 61 -213 165 -86 112 38 -16 67 -11 67 10 0 36 -151 124 -227
133 -35 4 -53 14 -93 54 -27 27 -50 53 -50 57 0 5 32 11 72 14 39 3 75 10 80
15 27 27 -105 84 -199 86 -59 1 -64 3 -105 44 -31 29 -52 42 -72 42 -25 0 -27
2 -16 15 11 13 26 15 81 9 77 -7 119 0 119 21 0 32 -138 75 -241 75 -33 0 -63
6 -75 15 -27 20 -41 19 -54 -6z m930 -3205 c10 -70 110 -224 146 -224 8 0 18
-9 22 -21 10 -25 171 -169 189 -169 7 0 13 -6 13 -13 0 -19 45 -60 140 -124
95 -65 108 -88 60 -105 -22 -7 -37 -22 -46 -44 -8 -19 -16 -34 -18 -34 -2 0
-39 47 -81 105 -48 65 -111 135 -164 181 -127 111 -193 192 -255 316 -55 106
-69 161 -43 171 23 10 32 0 37 -39z m946 -1047 c12 -22 13 -32 3 -43 -15 -18
-22 -18 -48 4 -17 13 -51 107 -51 140 0 12 82 -73 96 -101z m143 -143 c68 -74
73 -96 31 -139 -35 -36 -80 -57 -98 -46 -14 8 -32 111 -32 183 0 55 1 58 24
58 16 0 40 -18 75 -56z"/>
<path d="M6193 4563 c-21 -8 -15 -33 16 -68 15 -18 45 -73 66 -123 39 -95 64
-128 89 -119 8 3 16 21 18 39 2 24 7 32 18 29 46 -12 55 -7 58 33 3 37 0 43
-65 104 -85 80 -161 120 -200 105z"/>
<path d="M5000 4535 c-18 -22 -5 -32 42 -33 24 -1 76 -7 117 -13 78 -11 104
-4 74 23 -29 25 -82 38 -153 38 -47 0 -71 -4 -80 -15z"/>
<path d="M4504 4448 c-4 -5 1 -17 9 -25 17 -18 106 -43 125 -36 22 9 13 32
-15 39 -16 3 -47 12 -70 19 -29 9 -45 10 -49 3z"/>
<path d="M5060 4408 c-83 -10 -107 -22 -89 -44 9 -11 58 -14 233 -14 227 0
264 6 235 35 -32 32 -215 44 -379 23z"/>
<path d="M4333 4334 c-17 -45 92 -126 172 -128 24 -1 47 2 51 6 13 14 -17 37
-69 54 -29 9 -68 28 -87 43 -54 42 -60 44 -67 25z"/>
<path d="M4176 4163 c-23 -24 31 -67 105 -83 24 -5 69 -18 99 -29 56 -21 107
-26 148 -15 43 12 22 30 -55 47 -108 23 -211 52 -254 71 -20 8 -39 12 -43 9z"/>
<path d="M4946 4105 c-10 -28 -7 -34 32 -54 69 -35 306 -66 452 -58 133 7 300
24 323 32 23 9 22 32 -2 45 -27 14 -92 13 -223 -6 -62 -8 -133 -13 -158 -11
-25 3 -97 10 -161 16 -101 10 -154 20 -235 46 -15 5 -23 2 -28 -10z"/>
<path d="M4065 3980 c-10 -16 13 -47 48 -64 79 -37 315 -63 332 -36 9 15 -28
26 -160 50 -64 11 -134 29 -155 40 -44 22 -56 24 -65 10z"/>
<path d="M4910 3865 c0 -29 124 -69 273 -90 90 -13 148 -13 350 -5 262 11 290
14 307 35 17 20 -24 59 -54 51 -62 -15 -240 -29 -401 -29 -161 -1 -193 1 -305
26 -144 31 -170 33 -170 12z"/>
<path d="M4017 3773 c-9 -15 41 -35 104 -40 65 -6 87 10 37 26 -52 16 -135 24
-141 14z"/>
<path d="M5954 3536 c-3 -7 11 -52 31 -100 28 -67 33 -90 25 -105 -18 -35 -11
-72 24 -114 42 -52 100 -146 94 -153 -3 -2 -23 19 -44 48 -21 28 -45 53 -51
56 -26 8 -12 -56 32 -147 43 -88 44 -94 30 -121 -14 -28 -13 -30 51 -124 63
-94 99 -130 116 -120 15 10 8 43 -27 115 -19 41 -35 87 -35 104 0 17 -7 40
-15 51 -18 24 -19 44 -1 44 8 0 21 7 30 15 13 14 12 22 -10 83 -14 37 -36 86
-50 109 -13 23 -24 55 -24 72 0 16 -24 80 -54 142 -67 136 -107 184 -122 145z"/>
<path d="M3730 3409 c-80 -154 -128 -228 -193 -296 -50 -53 -51 -55 -36 -81
29 -53 65 -38 110 46 12 20 36 39 77 57 34 15 68 35 77 45 18 20 13 40 -10 40
-27 0 -25 20 13 132 51 148 58 178 39 178 -9 0 -41 -50 -77 -121z"/>
<path d="M5725 3479 c-168 -35 -527 -69 -727 -69 -82 0 -95 -9 -53 -36 22 -15
55 -16 283 -11 255 5 446 23 547 52 28 7 63 16 78 20 33 7 44 29 27 50 -16 19
-43 18 -155 -6z"/>
<path d="M3992 3424 c5 -26 93 -60 192 -73 103 -15 177 -1 136 24 -13 8 -226
54 -289 62 -38 5 -43 4 -39 -13z"/>
<path d="M5705 3285 c-142 -43 -524 -82 -720 -73 -92 4 -105 3 -103 -11 7 -36
44 -41 314 -38 143 2 264 6 270 9 5 4 57 11 114 18 126 13 235 44 273 79 15
13 27 28 27 33 0 16 -97 6 -175 -17z"/>
<path d="M3906 3262 c-10 -17 32 -59 76 -77 47 -18 274 -37 317 -26 14 4 26
14 26 22 0 10 -30 16 -130 25 -112 10 -180 25 -266 59 -10 3 -20 2 -23 -3z"/>
<path d="M7225 3113 c-3 -20 -6 -105 -5 -187 2 -83 -1 -183 -5 -222 -13 -119
-3 -154 68 -235 55 -63 62 -69 74 -53 16 22 10 50 -37 154 -30 65 -40 100 -42
153 -5 79 10 88 54 35 24 -30 28 -31 42 -18 21 21 8 66 -42 150 -33 55 -40 77
-45 138 -9 106 -48 160 -62 85z"/>
<path d="M3701 3067 c-16 -24 -68 -114 -115 -200 -47 -86 -97 -174 -111 -194
-26 -39 -32 -77 -15 -88 16 -10 57 21 91 68 17 23 58 63 91 89 92 72 114 112
47 89 -18 -6 -34 -9 -36 -7 -5 5 59 171 88 228 23 45 24 58 4 58 -8 0 -27 -19
-44 -43z"/>
<path d="M5790 3095 c-155 -33 -246 -46 -425 -60 -104 -9 -220 -19 -256 -22
-43 -4 -94 0 -149 11 -45 10 -85 14 -89 11 -21 -22 143 -102 184 -90 11 3 123
12 248 21 126 8 259 21 295 28 37 8 82 12 100 9 21 -3 50 2 81 15 26 12 67 24
89 28 23 4 47 13 53 21 28 33 -39 47 -131 28z"/>
<path d="M3890 3031 c0 -19 48 -31 147 -38 65 -4 93 -3 93 5 0 16 -63 32 -157
39 -60 4 -83 3 -83 -6z"/>
<path d="M5810 2925 c-284 -98 -643 -152 -805 -121 -44 9 -83 16 -87 16 -17 0
-7 -28 18 -51 25 -24 29 -24 197 -23 187 1 381 25 549 68 96 24 282 98 307
121 16 15 8 45 -11 44 -7 0 -83 -25 -168 -54z"/>
<path d="M3822 2840 c-13 -6 -22 -16 -20 -22 6 -18 107 -53 208 -73 47 -9 112
-25 145 -35 73 -23 206 -50 247 -50 16 0 38 -5 48 -10 38 -21 356 -30 629 -19
240 9 282 13 426 44 88 18 207 43 265 55 120 25 183 53 178 78 -5 26 -100 27
-205 2 -365 -87 -494 -103 -823 -101 -135 0 -279 5 -320 10 -41 6 -133 17
-205 25 -71 9 -164 25 -205 36 -181 50 -219 58 -280 64 -36 3 -76 1 -88 -4z"/>
<path d="M6040 2816 c-9 -12 -6 -28 15 -78 50 -119 51 -125 27 -158 -28 -38
-28 -45 6 -66 16 -9 37 -32 47 -51 20 -36 98 -113 115 -113 18 0 11 37 -20
102 -20 41 -30 79 -30 108 0 37 -9 61 -45 120 -24 41 -45 82 -45 91 0 15 -20
38 -46 52 -7 4 -17 0 -24 -7z"/>
<path d="M3699 2735 c-15 -22 -36 -59 -47 -82 -12 -23 -31 -48 -43 -57 -27
-18 -119 -209 -119 -246 0 -31 20 -53 41 -45 8 3 27 24 42 46 16 21 43 46 61
53 18 8 43 30 56 50 l22 37 -21 20 c-11 11 -21 24 -21 29 0 5 14 53 31 105 36
114 35 149 -2 90z"/>
<path d="M5915 2672 c-16 -1 -88 -16 -160 -32 -178 -41 -272 -56 -540 -85
-242 -27 -265 -31 -265 -45 0 -28 87 -38 167 -20 22 5 115 14 205 19 225 13
401 46 623 115 65 20 43 56 -30 48z"/>
<path d="M3933 2623 c-15 -39 111 -97 198 -91 23 2 44 9 47 15 4 15 -2 17 -96
33 -50 8 -82 20 -101 36 -34 28 -40 29 -48 7z"/>
<path d="M5771 2454 c-157 -53 -321 -84 -616 -115 -128 -13 -164 -24 -146 -42
9 -9 55 -11 165 -9 169 3 274 14 356 37 30 8 92 22 136 29 102 18 257 88 252
114 -5 27 -36 24 -147 -14z"/>
<path d="M7226 2458 c-12 -17 -16 -48 -16 -118 0 -88 2 -98 23 -118 13 -12 29
-22 35 -22 7 0 29 -16 51 -35 41 -37 61 -44 61 -21 0 29 -32 103 -70 162 -30
45 -40 71 -40 101 0 73 -16 91 -44 51z"/>
<path d="M6017 2463 c-13 -12 -7 -44 19 -94 34 -67 42 -140 20 -174 -20 -30
-14 -45 19 -45 37 0 74 -40 94 -100 15 -48 22 -55 46 -58 28 -4 28 -3 21 39
-4 24 -18 75 -31 114 -14 40 -25 79 -25 89 0 9 -16 54 -36 99 -46 102 -100
158 -127 130z"/>
<path d="M3890 2426 c0 -16 71 -48 150 -67 72 -18 324 -19 341 -2 7 7 9 16 5
20 -4 4 -69 11 -144 15 -138 6 -240 20 -288 38 -36 14 -64 12 -64 -4z"/>
<path d="M3683 2398 c-24 -28 -66 -141 -83 -223 -6 -33 -23 -97 -37 -143 -27
-91 -26 -112 10 -112 35 0 57 30 57 78 0 34 7 49 36 82 20 22 40 40 44 40 11
0 -15 -118 -41 -181 -12 -30 -34 -92 -49 -139 -23 -68 -26 -88 -16 -98 20 -20
41 -5 66 48 24 51 75 108 86 97 11 -10 -14 -140 -52 -279 -20 -70 -33 -132
-29 -138 17 -27 65 9 65 48 0 15 16 34 49 57 101 73 132 154 40 106 -23 -12
-43 -20 -46 -18 -2 3 3 42 11 87 18 91 21 217 6 240 -7 12 -12 12 -29 -4 -21
-19 -21 -19 -20 30 0 27 4 83 8 124 9 87 6 103 -20 95 -11 -3 -28 -7 -38 -10
-29 -8 -34 24 -15 81 9 27 20 65 24 84 4 19 11 43 15 53 11 25 -17 22 -42 -5z"/>
<path d="M5825 2299 c-22 -5 -76 -21 -119 -35 -149 -47 -355 -85 -531 -99
-110 -8 -145 -14 -145 -25 0 -18 195 -10 385 15 199 27 248 37 380 75 44 12
98 28 120 34 57 16 54 40 -5 43 -25 1 -63 -3 -85 -8z"/>
<path d="M3926 2221 c-18 -28 145 -61 304 -61 86 0 114 10 92 32 -5 5 -63 13
-128 18 -66 5 -151 12 -190 16 -50 5 -73 3 -78 -5z"/>
<path d="M5957 2153 c-13 -12 -7 -65 15 -136 l21 -71 -38 -32 c-36 -30 -41
-54 -10 -54 20 0 52 -45 59 -82 8 -41 86 -152 109 -156 25 -5 22 33 -9 98 -40
84 -45 107 -27 122 22 18 11 80 -32 184 -49 118 -69 147 -88 127z"/>
<path d="M3876 2054 c-19 -18 -21 -55 -4 -72 7 -7 26 -12 44 -12 18 0 61 -9
96 -20 34 -11 106 -25 159 -30 53 -5 116 -14 140 -19 24 -5 118 -15 209 -21
91 -6 194 -15 229 -22 66 -11 86 -10 551 28 233 19 277 27 426 75 123 40 160
63 148 93 -8 21 -32 20 -113 -3 -171 -51 -620 -108 -917 -118 -153 -5 -189 -3
-230 11 -27 9 -112 21 -194 27 -188 13 -312 34 -416 70 -97 34 -107 35 -128
13z"/>
<path d="M5745 1893 c-11 -2 -65 -17 -120 -33 -112 -33 -251 -55 -442 -71 -70
-5 -132 -14 -137 -19 -4 -4 2 -13 14 -20 44 -24 434 13 585 55 121 33 165 54
165 77 0 18 -19 21 -65 11z"/>
<path d="M5916 1804 c-10 -27 -7 -48 14 -87 32 -60 22 -97 -28 -97 -31 0 -28
-8 65 -187 84 -161 108 -182 101 -85 -2 31 -14 79 -27 105 -17 35 -21 57 -17
81 4 20 0 61 -9 98 -9 34 -21 79 -26 99 -9 37 -44 89 -59 89 -4 0 -11 -7 -14
-16z"/>
<path d="M4064 1798 c-11 -18 32 -46 89 -57 89 -17 204 -24 211 -13 11 18 -23
29 -138 47 -60 9 -120 21 -132 25 -15 6 -26 5 -30 -2z"/>
<path d="M5651 1735 c-19 -17 -58 -32 -113 -44 -46 -10 -114 -28 -153 -39 -38
-12 -137 -28 -219 -36 -211 -21 -218 -39 -11 -33 154 4 291 27 467 77 47 13
98 56 98 81 0 27 -32 24 -69 -6z"/>
<path d="M4020 1610 c0 -37 181 -74 328 -68 97 4 132 12 115 29 -5 5 -83 13
-174 19 -90 5 -180 14 -199 20 -44 13 -70 13 -70 0z"/>
<path d="M5823 1460 c5 -115 4 -140 -7 -140 -8 0 -24 -8 -37 -18 l-22 -19 32
-24 c37 -27 54 -62 71 -142 12 -58 39 -93 65 -84 20 8 19 52 -3 118 -12 34
-21 100 -26 179 -6 118 -24 232 -40 258 -4 7 -14 12 -23 12 -14 0 -15 -16 -10
-140z"/>
<path d="M5500 1529 c-180 -56 -234 -67 -434 -89 -166 -17 -213 -28 -188 -44
15 -9 357 12 454 29 48 8 104 21 125 29 147 55 180 69 195 83 20 18 15 33 -10
32 -9 0 -73 -18 -142 -40z"/>
<path d="M3845 1490 c-10 -44 -11 -373 -1 -388 12 -21 35 5 47 53 12 46 53
104 65 92 4 -4 9 -87 11 -185 4 -200 7 -222 28 -222 20 0 35 40 35 93 1 33 8
51 35 82 l34 39 7 -28 c4 -16 4 -99 0 -185 -6 -160 2 -231 28 -231 28 0 38 29
34 97 l-3 67 49 24 c26 12 51 20 54 18 3 -3 8 -59 11 -123 5 -104 8 -118 24
-117 19 2 20 -2 41 -115 14 -75 30 -98 53 -79 16 13 16 48 2 120 l-11 56 51
62 c48 57 56 80 28 80 -6 0 -23 -12 -38 -26 -15 -15 -34 -24 -42 -21 -8 3 -22
36 -31 73 -22 87 -55 164 -70 164 -7 0 -21 -7 -32 -15 -10 -8 -28 -15 -39 -15
-18 0 -23 10 -34 63 -8 34 -15 81 -16 105 -3 58 -42 101 -77 85 -13 -6 -27
-10 -33 -10 -11 0 -43 152 -44 210 -1 42 -14 46 -60 22 -35 -18 -43 -11 -35
31 4 22 1 40 -10 56 -9 12 -16 32 -16 44 0 57 -34 75 -45 24z"/>
<path d="M4185 1433 c-57 -8 -51 -23 11 -23 73 0 134 10 134 21 0 9 -88 10
-145 2z"/>
<path d="M4065 1330 c-15 -16 -15 -22 -5 -35 7 -8 20 -15 29 -15 9 0 41 -7 71
-15 30 -8 80 -22 111 -30 78 -21 361 -56 499 -62 74 -3 163 2 250 12 74 9 173
21 220 25 255 26 435 83 399 126 -17 20 -51 18 -206 -15 -391 -83 -781 -92
-1097 -26 -61 13 -131 31 -155 39 -58 21 -94 20 -116 -4z"/>
<path d="M5696 1298 c-3 -13 0 -54 6 -91 l11 -68 -30 -31 -31 -31 -16 32 c-33
64 -52 21 -42 -93 6 -65 4 -74 -14 -91 -11 -10 -17 -22 -14 -27 4 -6 7 -42 9
-82 1 -46 11 -99 29 -151 29 -83 49 -115 74 -115 12 0 13 8 7 43 -4 23 -9 67
-10 97 -1 30 -7 75 -13 100 -8 31 -8 48 0 57 10 13 8 64 -8 158 -11 67 11 30
51 -85 20 -58 43 -115 51 -127 25 -40 54 -24 54 29 0 11 -13 50 -30 88 -36 81
-37 93 -9 118 19 19 20 25 10 95 -20 143 -67 241 -85 175z"/>
<path d="M2397 1241 c-19 -21 -47 -60 -62 -87 -67 -118 -74 -127 -106 -120
l-29 6 0 -141 c0 -154 7 -170 53 -127 14 13 32 29 41 36 13 11 16 30 14 105
-3 83 -1 96 22 132 l25 40 5 -45 c4 -31 10 -46 22 -48 27 -5 38 29 47 147 5
60 12 114 15 120 4 5 2 12 -3 15 -5 3 -25 -12 -44 -33z"/>
<path d="M5425 1159 c-75 -25 -350 -67 -490 -76 -77 -4 -105 -10 -105 -19 0
-8 12 -17 26 -20 47 -12 267 4 428 30 171 29 259 58 254 85 -4 23 -43 23 -113
0z"/>
<path d="M4271 1081 c-38 -24 38 -48 188 -57 70 -5 101 -4 101 4 0 14 -85 38
-183 51 -93 13 -88 13 -106 2z"/>
<path d="M2029 1042 c-45 -39 -88 -60 -138 -68 -71 -11 -90 -67 -28 -79 18 -4
46 -17 62 -31 l30 -24 -52 0 c-62 0 -59 3 -325 -224 -17 -15 -28 -34 -28 -50
0 -17 -16 -44 -48 -78 -52 -58 -87 -124 -161 -300 -56 -133 -63 -166 -39 -181
23 -15 42 3 80 80 31 63 32 65 62 57 17 -5 66 -9 109 -9 l78 -1 24 -52 c19
-42 29 -52 48 -52 39 0 51 22 37 65 -7 23 -10 57 -5 89 5 41 1 68 -15 117 -28
81 -20 109 55 204 30 39 70 93 89 120 19 28 55 70 80 95 25 24 46 50 46 57 0
7 5 13 10 13 6 0 10 -10 10 -23 0 -33 30 -117 41 -117 16 0 59 104 69 167 5
32 19 70 31 86 11 16 18 35 14 44 -5 13 -13 10 -43 -20 -37 -36 -65 -46 -76
-28 -3 4 5 18 19 31 21 20 23 28 18 74 -3 28 -9 55 -13 59 -4 5 -23 -5 -41
-21z m-249 -370 c0 -10 -31 -55 -44 -64 -6 -4 -20 -8 -31 -8 -16 0 -12 7 20
40 38 38 55 49 55 32z m-133 -188 c8 -22 -22 -44 -58 -44 -34 0 -43 13 -29 40
14 26 77 28 87 4z m-106 -140 c31 -5 37 -11 48 -49 15 -52 12 -74 -12 -89 -14
-9 -27 -6 -64 14 -61 33 -69 47 -50 93 17 39 20 40 78 31z"/>
<path d="M5330 994 c-83 -26 -193 -45 -373 -63 -98 -11 -181 -22 -184 -25 -16
-16 20 -21 140 -19 213 2 446 43 484 85 15 17 15 21 3 28 -18 11 -13 12 -70
-6z"/>
<path d="M5460 895 c-8 -9 -15 -51 -18 -98 -4 -76 -6 -84 -33 -107 l-29 -25
28 -85 c36 -107 60 -152 75 -147 8 2 11 22 10 53 -2 59 -2 89 0 266 2 141 -6
176 -33 143z"/>
<path d="M4393 884 c13 -14 36 -20 92 -22 41 -2 83 -1 92 3 30 12 -21 26 -117
32 -83 5 -84 5 -67 -13z"/>
<path d="M5070 770 c-129 -8 -197 -18 -205 -30 -3 -4 1 -10 8 -13 24 -9 322
10 345 22 27 14 20 32 -11 29 -12 0 -74 -4 -137 -8z"/>
<path d="M4517 743 c-16 -15 -5 -56 21 -83 32 -32 74 -42 247 -59 155 -15 226
-14 334 9 115 23 205 65 209 98 5 34 -23 38 -81 8 -74 -37 -216 -50 -384 -36
-149 13 -213 25 -267 51 -41 20 -68 24 -79 12z"/>
<path d="M5312 643 c-7 -3 -24 -28 -39 -56 -25 -50 -82 -139 -151 -236 -18
-25 -42 -61 -53 -78 -12 -18 -29 -33 -38 -33 -9 0 -26 -7 -37 -15 -10 -8 -26
-15 -35 -15 -21 0 -106 75 -114 100 -7 21 -35 28 -35 9 0 -6 -15 8 -32 30 -18
22 -67 81 -108 129 -41 49 -88 106 -103 126 -32 41 -42 44 -56 17 -9 -16 -2
-32 36 -88 68 -100 166 -219 245 -295 64 -62 72 -67 125 -74 112 -14 189 26
252 128 20 32 64 99 99 149 71 101 96 152 87 179 -6 20 -23 29 -43 23z"/>
<path d="M5100 534 c-30 -7 -88 -18 -129 -24 -41 -5 -76 -12 -79 -15 -3 -2 1
-12 9 -21 11 -14 26 -16 84 -11 81 6 198 47 203 71 4 19 -13 19 -88 0z"/>
<path d="M4976 400 c-26 -5 -55 -12 -65 -15 -15 -6 -15 -7 1 -19 29 -21 198
10 183 34 -7 11 -48 11 -119 0z"/>
</g>
</svg>
