<?xml version="1.0" standalone="no"?>
<!DOCTYPE svg PUBLIC "-//W3C//DTD SVG 20010904//EN"
 "http://www.w3.org/TR/2001/REC-SVG-20010904/DTD/svg10.dtd">
<svg version="1.0" xmlns="http://www.w3.org/2000/svg"
 width="1280.000000pt" height="888.000000pt" viewBox="0 0 1280.000000 888.000000"
 preserveAspectRatio="xMidYMid meet">
<metadata>
Created by potrace 1.15, written by Peter Selinger 2001-2017
</metadata>
<g transform="translate(0.000000,888.000000) scale(0.100000,-0.100000)"
fill="#000000" stroke="none">
<path d="M9496 8813 c-72 -77 -117 -130 -147 -180 -11 -18 -29 -33 -38 -33
-10 0 -27 -10 -39 -22 -12 -13 -46 -48 -77 -79 -30 -31 -55 -62 -55 -68 0 -7
-6 -11 -12 -10 -7 2 -27 -1 -44 -5 -27 -6 -34 -14 -43 -51 -10 -42 -13 -44
-106 -89 -84 -41 -108 -60 -203 -154 -59 -59 -145 -147 -190 -197 l-82 -90 3
100 c1 56 -2 102 -7 105 -12 6 -35 -107 -35 -177 l-1 -52 -77 -57 c-185 -136
-378 -360 -513 -596 -110 -191 -274 -530 -321 -663 -69 -197 -127 -293 -200
-330 -30 -16 -33 -15 -87 66 -25 38 -39 48 -76 58 -25 6 -57 11 -72 11 -18 0
-44 16 -83 53 -32 29 -87 67 -124 85 -40 20 -67 40 -67 49 0 8 -16 42 -36 74
-37 62 -41 96 -10 91 10 -2 52 4 93 13 l75 17 33 71 c65 137 84 349 41 452 -9
20 -14 40 -11 44 5 9 58 31 158 66 43 15 87 35 99 45 22 17 21 18 -30 9 -69
-11 -80 -14 -192 -64 -52 -23 -108 -45 -124 -49 -26 -6 -28 -6 -16 9 7 9 38
30 69 48 56 33 328 153 410 182 50 17 118 20 156 5 25 -10 26 -12 13 -33 -14
-20 -75 -45 -151 -62 -15 -3 -25 -10 -22 -15 18 -29 175 10 216 53 31 34 49
110 65 282 23 247 49 316 218 572 56 86 102 143 129 163 48 35 202 115 297
155 72 30 110 59 110 86 0 24 -20 29 -125 29 -88 0 -96 -2 -156 -36 -145 -81
-293 -215 -378 -343 -126 -187 -209 -443 -227 -708 l-7 -92 -51 -6 c-102 -13
-184 -39 -321 -100 -209 -95 -190 -91 -205 -42 -19 64 -84 190 -129 249 -64
86 -181 163 -285 189 -43 11 -47 10 -75 -14 -17 -14 -68 -37 -113 -52 -110
-36 -149 -63 -186 -127 -16 -30 -58 -80 -93 -112 -35 -33 -79 -80 -97 -105
-18 -25 -36 -46 -40 -45 -4 0 -59 26 -123 57 -110 54 -236 97 -326 112 -45 7
-53 20 -53 86 0 20 -7 74 -16 120 -34 183 -113 379 -213 532 -59 90 -195 235
-243 259 -115 58 -278 128 -297 128 -30 0 -78 -26 -91 -49 -10 -21 -8 -22 230
-156 154 -86 204 -128 264 -218 141 -213 245 -493 262 -712 7 -76 9 -82 45
-117 49 -47 115 -71 301 -109 83 -17 172 -38 197 -48 54 -20 53 -15 26 -181
-28 -171 1 -321 76 -390 43 -39 121 -57 180 -42 24 6 45 9 47 7 9 -9 -39 -93
-69 -122 -19 -17 -77 -54 -129 -83 -52 -28 -112 -64 -132 -80 -20 -17 -46 -30
-58 -30 -41 0 -107 -41 -174 -110 -37 -38 -72 -70 -77 -70 -4 0 -53 92 -108
205 -55 113 -134 260 -175 328 -69 113 -95 164 -219 429 -70 150 -186 320
-313 458 -34 37 -43 57 -53 110 -15 79 -34 121 -62 138 -32 20 -33 9 -5 -49
25 -53 22 -90 -7 -88 -7 0 -43 39 -82 86 -103 125 -281 293 -387 363 -51 34
-96 71 -100 82 -14 37 -59 86 -84 92 -40 10 -92 47 -182 129 -45 42 -103 85
-127 97 -32 15 -47 30 -52 48 -3 15 -23 46 -44 68 -33 38 -37 46 -32 82 5 35
2 42 -20 57 -38 24 -64 7 -72 -49 -7 -41 -11 -47 -54 -68 -51 -25 -76 -65 -67
-104 8 -30 36 -32 61 -4 24 27 34 25 46 -7 18 -49 58 -82 107 -89 39 -6 54
-16 106 -72 34 -36 71 -80 84 -98 12 -19 30 -34 38 -34 28 0 77 -32 145 -96
38 -35 72 -64 78 -64 5 0 26 -35 47 -77 57 -115 167 -222 370 -357 l161 -108
33 -86 c76 -202 227 -455 350 -587 38 -42 77 -89 85 -105 8 -16 19 -72 25
-124 5 -54 20 -123 35 -161 24 -64 98 -219 135 -280 10 -16 25 -54 35 -84 34
-106 139 -171 278 -172 40 0 89 2 109 6 31 6 37 4 42 -13 13 -39 36 -238 36
-309 l0 -72 -32 19 c-72 42 -245 102 -493 169 -143 40 -280 81 -303 93 -54 26
-90 74 -151 204 -38 80 -58 109 -99 144 -28 24 -59 62 -68 84 -35 80 -110 205
-276 458 -93 142 -189 295 -213 340 -32 60 -45 76 -45 58 0 -14 9 -40 20 -58
20 -32 26 -63 14 -75 -3 -3 -56 45 -118 107 -165 167 -370 313 -639 456 -82
43 -122 70 -132 89 -7 15 -32 44 -54 64 -33 30 -41 44 -41 73 0 28 -3 35 -17
32 -13 -2 -22 -23 -33 -78 -9 -41 -19 -80 -23 -86 -4 -7 -24 -15 -44 -18 -63
-11 -73 -17 -73 -36 0 -28 18 -34 60 -20 35 12 40 11 72 -13 18 -14 94 -55
169 -91 105 -51 146 -77 178 -111 40 -43 44 -45 99 -45 l57 -1 40 -56 c41 -57
113 -125 309 -294 l109 -94 18 -71 c34 -138 103 -246 283 -443 105 -115 164
-195 196 -266 51 -112 54 -109 -74 -65 -61 21 -176 64 -256 95 -444 173 -601
214 -1170 304 -348 55 -398 59 -775 71 -181 6 -519 22 -750 37 -678 42 -680
42 -1039 -73 -110 -36 -241 -72 -290 -82 l-91 -18 -8 -65 c-13 -101 -2 -245
24 -322 17 -53 30 -74 61 -99 21 -16 50 -51 63 -77 27 -53 168 -231 253 -319
40 -42 71 -64 100 -73 23 -7 45 -9 48 -6 14 14 -56 108 -182 244 -74 79 -141
159 -150 176 -9 18 -29 46 -45 62 -53 56 -72 118 -77 246 l-4 115 47 42 c45
39 84 58 170 80 22 5 76 26 121 46 134 60 308 96 457 96 40 0 128 -9 197 -20
93 -15 213 -22 470 -30 190 -5 416 -12 504 -16 l159 -6 74 -49 c41 -27 139
-81 216 -120 78 -39 144 -73 145 -75 11 -8 -19 -57 -98 -164 -76 -102 -94
-120 -127 -129 -60 -17 -155 -13 -338 14 -306 46 -436 75 -575 130 -47 18
-124 40 -171 49 -101 19 -193 46 -389 115 -80 28 -185 62 -234 76 -49 13 -107
37 -128 51 -40 28 -130 45 -142 26 -19 -32 863 -335 1099 -377 94 -17 151 -33
207 -59 69 -32 91 -38 200 -46 68 -6 148 -16 179 -23 70 -17 134 -49 134 -68
0 -7 -21 -26 -46 -41 -55 -35 -466 -165 -564 -179 -38 -6 -88 -14 -110 -20
-226 -53 -375 -70 -661 -72 -171 -2 -193 -4 -220 -22 l-29 -20 55 -6 c87 -11
354 -10 485 1 255 22 384 53 815 195 173 57 350 109 392 115 l77 13 101 -57
c262 -146 626 -278 912 -331 105 -19 218 -52 218 -65 0 -13 -235 -234 -335
-315 -114 -91 -251 -185 -271 -185 -9 0 -42 6 -73 14 -159 41 -450 46 -845 16
-308 -24 -402 -36 -471 -58 -59 -20 -75 -50 -23 -45 18 2 139 14 268 28 359
37 557 48 755 42 167 -4 335 -28 335 -46 0 -7 -40 -32 -178 -111 -41 -23 -87
-54 -102 -69 -29 -27 -49 -71 -32 -71 5 0 56 33 114 73 157 110 257 167 293
167 9 0 46 28 83 63 37 34 130 116 207 182 77 66 158 139 181 163 22 23 48 42
56 42 19 0 33 17 42 51 17 73 76 25 149 -121 46 -93 55 -105 77 -104 14 1 158
9 320 18 334 19 558 39 661 61 39 8 75 15 80 15 5 0 9 -29 9 -64 l0 -64 -72
-30 c-207 -85 -616 -186 -963 -237 -165 -24 -201 -34 -238 -61 -20 -14 -17
-15 48 -9 132 13 420 65 602 110 207 51 469 129 823 244 134 44 246 79 247 77
8 -7 -130 -89 -228 -136 -222 -105 -539 -193 -1139 -314 -424 -85 -494 -95
-750 -106 -152 -6 -272 -18 -410 -39 -317 -49 -435 -61 -605 -61 -231 0 -266
7 -420 84 -71 36 -159 77 -195 92 -101 41 -270 128 -362 185 -46 29 -120 74
-165 101 -52 31 -98 68 -129 104 -26 31 -98 97 -158 147 -61 49 -150 130 -198
179 -48 48 -95 88 -104 88 -9 0 -25 -10 -35 -21 -26 -30 -13 -49 79 -110 45
-31 153 -126 262 -233 162 -159 195 -187 270 -225 47 -25 125 -71 175 -104
118 -78 207 -122 286 -142 56 -14 109 -46 109 -64 0 -4 -35 -14 -77 -24 -140
-31 -230 -86 -264 -162 -25 -54 -24 -79 6 -128 27 -48 151 -172 270 -271 44
-37 99 -91 121 -120 44 -56 59 -65 284 -167 344 -156 360 -161 565 -180 266
-25 964 -8 1055 25 24 9 110 28 189 42 80 13 263 51 406 84 143 32 313 68 378
79 149 27 177 37 260 94 37 26 80 49 95 53 75 15 110 35 387 214 50 32 91 57
93 55 2 -2 -13 -28 -33 -59 -24 -35 -39 -71 -42 -100 -5 -39 -9 -45 -35 -50
-17 -3 -51 -21 -77 -39 -25 -19 -53 -36 -62 -39 -16 -6 -49 -94 -49 -132 0
-16 -12 -26 -45 -40 -56 -23 -314 -273 -367 -356 -85 -131 -168 -325 -168
-390 0 -15 -12 -49 -26 -76 -155 -290 -244 -651 -244 -992 l0 -134 -42 -71
c-22 -40 -103 -166 -178 -282 -192 -295 -186 -283 -174 -354 10 -59 9 -60 -31
-128 -35 -59 -40 -75 -40 -130 -1 -49 -5 -67 -22 -85 -22 -24 -37 -51 -52 -92
-8 -19 -6 -30 11 -51 l21 -27 -31 -24 c-24 -19 -33 -37 -42 -82 -15 -70 -21
-82 -75 -152 -55 -71 -75 -112 -75 -150 0 -37 30 -41 57 -7 27 34 36 37 76 26
25 -7 46 -24 72 -59 37 -51 56 -56 76 -19 7 13 5 36 -6 78 -14 57 -14 63 10
156 25 96 46 148 64 160 5 3 7 21 4 39 -3 22 3 58 17 100 14 43 19 76 15 96
-5 24 -1 37 19 61 23 27 26 40 26 104 0 61 3 76 19 87 31 22 125 139 175 218
47 75 104 187 210 414 31 66 59 117 62 113 3 -3 17 -47 30 -97 26 -98 48 -150
64 -150 19 0 10 89 -20 205 -34 131 -38 220 -14 286 24 69 42 172 79 469 19
151 41 309 48 350 l12 75 43 13 c35 12 64 39 194 190 234 270 294 352 368 502
31 61 53 92 80 112 21 14 72 70 114 123 43 53 85 98 94 101 94 29 160 84 272
229 43 55 87 109 99 119 21 19 21 19 21 -3 0 -46 51 -111 115 -144 63 -34 63
-33 26 -71 l-34 -35 51 -55 c33 -35 52 -64 52 -79 0 -24 -2 -24 -112 -30 -162
-9 -277 -45 -401 -126 -74 -49 -191 -164 -244 -242 -83 -120 -173 -348 -207
-524 -36 -190 -41 -243 -40 -505 0 -222 4 -289 23 -410 47 -309 118 -543 231
-765 130 -256 257 -435 307 -435 15 0 60 -18 101 -41 63 -35 87 -42 157 -48
93 -9 82 -5 191 -83 110 -79 124 -81 201 -23 52 39 74 48 145 62 83 15 123 33
228 99 30 19 63 34 75 34 22 1 201 192 247 266 15 24 47 90 72 146 24 57 71
164 104 238 136 308 175 449 194 712 19 272 -13 662 -77 936 -27 113 -36 132
-106 243 -27 41 -56 95 -64 120 -27 75 -179 214 -290 265 -44 21 -81 27 -190
35 -156 12 -228 27 -233 50 -5 26 35 65 103 100 36 19 65 38 65 43 0 5 -22 31
-50 58 -55 54 -59 64 -30 73 11 3 51 40 89 82 38 41 74 72 79 69 6 -3 43 -52
83 -109 91 -128 176 -212 257 -255 35 -19 66 -41 69 -50 19 -62 37 -87 118
-167 79 -78 98 -103 138 -186 111 -232 291 -439 472 -544 194 -112 216 -128
210 -150 -22 -78 -26 -131 -19 -245 4 -69 8 -240 8 -380 1 -250 2 -256 29
-335 19 -57 27 -100 27 -151 0 -50 4 -75 14 -83 12 -10 15 -7 18 21 6 65 29
35 83 -109 97 -259 186 -417 309 -551 42 -45 56 -67 56 -90 0 -25 7 -34 38
-49 46 -25 78 -70 86 -125 6 -34 14 -47 39 -63 22 -14 47 -48 79 -110 25 -49
59 -101 75 -115 27 -23 30 -34 42 -131 7 -58 9 -122 6 -143 l-7 -37 27 13 c18
8 38 34 60 79 39 77 60 89 161 89 46 0 64 4 64 13 0 18 -74 87 -145 135 -78
52 -93 69 -149 176 -61 117 -109 183 -252 346 -164 187 -161 182 -169 247 -9
72 -26 106 -130 263 -110 167 -119 192 -111 322 15 239 18 640 6 734 -18 150
-57 266 -121 365 -16 26 -36 76 -43 112 -12 55 -27 85 -92 179 -227 329 -350
462 -530 572 -50 30 -63 44 -73 76 -13 44 -89 132 -150 175 -23 15 -41 33 -41
39 0 7 -18 42 -40 79 -77 128 -49 121 102 -26 68 -65 98 -87 131 -95 25 -7 55
-24 72 -43 35 -37 88 -65 222 -117 160 -63 241 -86 648 -183 143 -33 341 -86
440 -115 354 -107 565 -137 960 -137 332 0 456 16 594 77 116 52 267 134 388
212 120 77 394 286 460 350 64 63 111 154 95 187 -17 39 -102 126 -181 185
l-78 58 76 34 c104 47 206 116 346 233 134 113 238 190 305 229 25 14 60 46
78 71 36 51 87 94 147 125 22 11 89 62 149 111 61 50 118 93 128 97 10 3 29
27 42 52 28 54 89 138 201 273 91 110 136 181 172 271 23 57 24 66 13 113 -7
29 -11 69 -8 90 4 33 0 43 -29 72 -38 37 -117 80 -230 123 -42 16 -93 41 -114
55 -23 15 -53 25 -74 25 -20 0 -104 14 -188 31 -177 36 -180 36 -942 -6 -242
-14 -573 -31 -735 -40 -162 -8 -322 -17 -355 -20 -33 -3 -118 -10 -190 -15
-171 -15 -409 -47 -515 -70 -47 -10 -187 -48 -313 -84 -210 -60 -393 -103
-403 -94 -2 3 17 39 42 82 31 51 48 93 52 124 5 43 12 54 92 132 169 166 286
357 330 539 11 47 18 56 69 90 91 63 290 249 297 279 18 73 59 125 176 219 37
30 76 69 87 87 15 23 38 38 93 60 40 15 88 30 106 33 66 11 47 50 -26 55 l-47
3 -5 48 c-3 26 -13 54 -21 63 -15 14 -19 10 -43 -40 -20 -41 -56 -82 -136
-157 -79 -73 -117 -116 -136 -154 -19 -41 -32 -54 -54 -58 -21 -5 -33 -17 -49
-50 -17 -35 -29 -46 -59 -55 -52 -16 -109 -67 -201 -181 -43 -53 -90 -107
-105 -120 l-26 -24 0 66 c0 36 -5 78 -12 94 -11 28 -12 27 -18 -22 -4 -27 -5
-77 -2 -111 l4 -60 -54 -65 c-136 -162 -223 -294 -299 -454 -40 -84 -53 -103
-84 -120 -58 -30 -144 -132 -229 -270 -43 -70 -98 -151 -122 -180 l-44 -54
143 50 c474 168 1011 294 1372 324 44 4 88 9 98 11 33 10 16 -15 -79 -115
-182 -191 -406 -311 -739 -395 -207 -52 -394 -83 -1149 -191 -682 -97 -763
-112 -849 -154 -72 -36 -84 -37 193 14 102 19 428 70 725 114 680 102 954 146
1128 181 75 15 137 26 137 24 0 -3 -9 -37 -20 -76 -23 -84 -25 -176 -5 -233
12 -33 12 -42 1 -55 -7 -8 -35 -54 -61 -102 -27 -48 -60 -99 -74 -112 l-26
-24 -110 19 c-324 56 -460 71 -715 78 -237 7 -261 9 -335 34 -97 31 -169 44
-300 52 -55 4 -155 15 -223 26 -139 22 -249 24 -307 7 l-40 -12 40 -7 c22 -4
144 -15 270 -23 253 -18 414 -38 496 -62 56 -17 129 -50 129 -60 0 -2 -7 -21
-16 -42 -18 -43 -58 -88 -97 -108 -26 -14 -34 -13 -90 5 -81 27 -126 37 -342
75 -179 32 -181 33 -273 89 -93 56 -200 103 -210 92 -16 -16 45 -65 139 -112
135 -69 175 -116 131 -156 -23 -21 -90 -45 -133 -47 -68 -4 -88 0 -118 26
l-30 25 18 47 c10 26 21 63 24 82 l7 35 -30 -32 c-16 -18 -34 -52 -40 -75 -20
-79 -32 -98 -93 -149 -104 -87 -149 -103 -332 -118 -227 -19 -329 11 -473 142
-107 97 -122 117 -144 201 -11 39 -26 78 -34 86 -12 12 -14 8 -14 -31 0 -25 7
-68 15 -95 20 -66 19 -70 -15 -84 -68 -28 -194 6 -228 63 -24 38 -12 51 98
113 92 51 155 104 131 112 -6 2 -64 -25 -129 -61 -173 -96 -225 -120 -352
-164 -133 -47 -289 -88 -298 -78 -7 7 -5 101 3 126 11 32 206 113 412 170 143
39 228 74 252 102 10 13 7 16 -21 22 -18 4 -100 26 -183 50 -460 135 -450 133
-1135 165 -256 11 -426 32 -576 70 -194 49 -324 114 -374 186 -16 22 -54 58
-84 79 -31 21 -58 46 -61 56 -4 10 -35 59 -71 109 -69 96 -114 174 -114 197 0
12 11 14 63 8 290 -32 688 -154 1397 -428 302 -117 411 -153 777 -257 218 -63
296 -89 323 -110 48 -37 94 -60 123 -60 35 0 80 -54 126 -151 45 -97 83 -132
181 -171 48 -20 73 -22 205 -22 123 0 184 6 340 33 218 38 191 22 327 191 111
137 63 116 548 240 190 48 388 102 440 119 158 52 293 106 298 120 7 21 -65 5
-206 -45 -68 -24 -178 -58 -245 -75 -67 -17 -203 -52 -302 -79 -164 -45 -254
-66 -356 -84 l-37 -6 15 42 c9 27 18 105 23 207 5 122 11 165 21 172 23 14 67
10 143 -12 201 -60 314 31 444 356 22 55 63 151 91 213 73 163 99 242 107 319
l7 68 156 160 c186 190 287 318 348 439 69 138 89 163 178 221 59 39 103 79
160 147 107 127 163 185 211 218 30 21 46 43 61 81 18 48 23 53 65 66 39 11
46 17 57 52 9 32 20 43 56 61 26 12 67 47 93 77 66 77 111 101 202 109 99 8
135 20 155 50 31 48 2 68 -57 38 -30 -16 -31 -15 -54 13 -30 36 -29 58 1 108
14 22 25 50 25 63 0 41 -37 25 -104 -45z m28 -117 c30 -56 15 -69 -101 -90
-39 -7 -42 4 -13 52 17 27 73 72 90 72 3 0 14 -16 24 -34z m-1256 -24 c3 -19
-1 -23 -15 -20 -10 2 -19 14 -21 26 -3 19 1 23 15 20 10 -2 19 -14 21 -26z
m-4748 -57 c53 -75 47 -101 -16 -84 -61 17 -117 98 -83 120 30 20 70 5 99 -36z
m4670 37 c0 -28 -65 -57 -100 -44 l-23 9 23 21 c24 22 100 32 100 14z m-3522
-39 c-3 -19 -48 -32 -48 -14 0 10 28 30 43 31 5 0 7 -8 5 -17z m106 -39 c20
-20 21 -44 0 -44 -27 0 -54 20 -54 40 0 25 32 27 54 4z m3286 1 c0 -27 -38
-55 -75 -55 -42 0 -44 11 -8 45 31 28 83 35 83 10z m1290 -13 c0 -4 -13 -20
-30 -35 l-30 -29 0 24 c0 13 5 29 12 36 13 13 48 16 48 4z m-4449 -49 c4 -4 9
-17 11 -28 4 -28 -32 -31 -65 -5 -41 32 -36 54 10 47 20 -4 40 -10 44 -14z
m3039 -31 c0 -15 -56 -62 -72 -62 -31 0 -30 22 2 55 27 28 37 32 52 24 10 -5
18 -13 18 -17z m-4275 -7 c14 -13 25 -29 25 -35 0 -18 -46 -11 -74 11 -21 17
-24 24 -15 35 17 20 37 17 64 -11z m5575 -9 c0 -16 -14 -36 -26 -36 -14 0 -19
22 -7 33 7 8 33 10 33 3z m-4242 -56 c17 -16 27 -32 22 -35 -13 -8 -40 7 -69
39 -23 25 -24 26 -4 26 11 0 34 -13 51 -30z m-1235 -21 c13 -6 32 -24 42 -41
14 -25 15 -32 4 -39 -27 -17 -82 14 -95 54 -4 12 -1 23 7 28 17 11 14 11 42
-2z m4077 -4 c16 -19 4 -52 -26 -71 -52 -35 -78 26 -28 65 32 25 38 26 54 6z
m1289 6 c12 -8 12 -13 -3 -35 -19 -29 -56 -35 -56 -9 0 16 27 53 39 53 3 0 12
-4 20 -9z m-4015 -85 c33 -44 33 -56 -2 -56 -33 0 -57 23 -67 63 -6 24 -4 27
18 27 16 0 33 -11 51 -34z m-1192 -32 c23 -12 68 -70 68 -88 0 -15 -60 -4 -85
16 -23 18 -55 72 -55 93 0 8 36 -3 72 -21z m3839 -21 c3 -47 -24 -83 -63 -83
-18 0 -20 5 -15 37 4 21 14 44 24 50 24 19 53 16 54 -4z m1262 5 c10 -27 -13
-56 -75 -96 -40 -26 -102 -85 -168 -159 -176 -198 -203 -223 -238 -223 -41 0
-41 12 4 86 70 117 386 404 445 404 15 0 29 -6 32 -12z m-3816 -65 c10 -26 12
-42 5 -53 -18 -29 -40 -22 -68 21 -25 40 -26 43 -8 56 32 23 54 16 71 -24z
m-1108 -80 c129 -99 282 -238 356 -324 82 -97 96 -121 76 -134 -17 -10 -117
34 -191 86 -189 130 -283 243 -313 377 -7 32 27 29 72 -5z m3581 2 c14 -37 -3
-75 -34 -75 -33 0 -37 18 -12 62 25 44 33 47 46 13z m-2425 -40 c31 -30 36
-95 8 -95 -10 0 -23 4 -30 8 -14 9 -43 74 -43 97 0 23 38 18 65 -10z m2395
-110 c-1 -26 -26 -59 -39 -50 -12 7 -15 77 -5 88 11 11 44 -17 44 -38z m-2335
-46 c15 -66 -47 -79 -68 -15 -11 32 2 46 40 46 16 0 23 -8 28 -31z m2300 -50
c12 -19 -4 -59 -24 -59 -22 0 -34 25 -26 51 7 20 40 26 50 8z m-2293 -46 c10
-9 18 -30 18 -50 0 -26 -4 -33 -20 -33 -22 0 -40 28 -40 63 0 39 13 46 42 20z
m1225 -48 c43 -18 212 -136 213 -149 0 -5 -20 -30 -44 -56 -33 -35 -43 -53
-39 -69 10 -39 -17 -118 -55 -157 -38 -39 -103 -73 -139 -74 -41 0 -24 -16 29
-29 68 -15 78 -25 78 -78 0 -24 11 -70 26 -105 17 -41 25 -74 22 -100 -2 -25
0 -34 7 -27 5 5 12 47 15 92 l5 82 85 43 c47 23 103 47 125 53 22 6 47 12 57
15 26 8 42 -58 42 -171 -1 -108 -19 -195 -59 -282 l-24 -53 -59 0 c-33 0 -114
11 -180 25 -138 29 -231 31 -352 10 -47 -8 -136 -19 -199 -25 -111 -10 -115
-10 -137 11 -51 47 -74 170 -62 322 4 48 14 112 22 141 l16 53 49 -8 c28 -4
69 -16 93 -27 57 -25 158 -109 158 -130 0 -9 -14 -37 -30 -61 -44 -64 -38 -97
8 -48 33 35 51 88 58 176 8 95 23 113 73 86 37 -19 61 -19 61 -1 0 21 -26 38
-61 41 -19 1 -36 10 -41 21 -6 11 -37 44 -70 75 -50 47 -59 61 -56 85 5 45 36
54 170 52 84 -2 121 1 130 10 9 10 13 50 12 143 -1 74 2 129 7 129 5 0 26 -7
46 -15z m3383 -8 c0 -27 -23 -51 -63 -66 -30 -12 -34 -4 -16 32 30 58 79 79
79 34z m-1445 -3 c20 -15 19 -17 -38 -127 -90 -173 -174 -284 -348 -459 -86
-87 -162 -158 -168 -158 -23 0 -51 40 -51 73 0 49 78 200 150 292 35 44 136
151 224 237 168 165 187 176 231 142z m-902 -5 c19 -8 22 -16 19 -40 -5 -33
-3 -33 -37 -17 -18 8 -25 19 -25 40 0 31 7 34 43 17z m-1129 -31 c-4 -6 -10
-50 -13 -97 l-6 -86 -115 -3 c-132 -3 -155 1 -170 28 -9 16 -5 28 18 63 41 59
60 73 117 90 62 19 180 23 169 5z m-3351 -44 c67 -66 38 -113 -49 -79 -34 13
-44 22 -44 39 0 23 34 76 49 76 3 0 23 -16 44 -36z m2268 -43 c12 -41 -1 -91
-24 -91 -15 0 -27 59 -27 128 0 35 0 35 20 17 11 -10 25 -34 31 -54z m2227 6
c5 -22 -17 -97 -28 -97 -23 0 -39 75 -24 114 7 19 48 6 52 -17z m2202 0 c0 -7
-10 -21 -21 -31 -27 -23 -46 -8 -30 23 13 23 51 29 51 8z m-5142 -64 c120
-121 284 -344 354 -484 34 -68 78 -207 78 -246 0 -18 -41 -17 -68 3 -38 26
-287 367 -348 476 -89 159 -139 318 -99 318 9 0 46 -30 83 -67z m-1452 19 c13
-8 34 -46 34 -61 0 -16 -36 -13 -54 5 -32 31 -15 79 20 56z m3620 -94 c8 -15
25 -57 39 -95 l24 -68 -37 -38 c-72 -75 -165 -111 -224 -88 -48 18 -38 54 34
126 l62 62 1 65 c0 51 4 71 19 87 l19 21 25 -22 c13 -13 30 -35 38 -50z m2874
48 c0 -2 -3 -11 -6 -20 -9 -23 -34 -20 -34 4 0 13 7 20 20 20 11 0 20 -2 20
-4z m-3549 -22 c11 -13 10 -24 -4 -63 l-16 -46 58 -60 c99 -101 103 -130 16
-123 -56 5 -125 40 -199 102 l-38 33 27 54 c51 102 119 147 156 103z m-2801
-24 c11 -11 20 -27 20 -34 0 -13 -5 -13 -37 1 -47 19 -64 33 -57 44 10 16 54
9 74 -11z m2168 -11 c26 -7 117 -41 202 -76 85 -35 182 -75 215 -89 33 -13 74
-35 90 -49 l30 -25 -57 20 c-32 10 -139 35 -238 55 -241 48 -331 79 -400 135
-21 17 -23 21 -10 30 20 13 110 13 168 -1z m-2027 -68 c41 -41 38 -52 -13 -45
-74 10 -88 14 -88 28 0 21 28 46 51 46 12 0 34 -13 50 -29z m6119 20 c0 -16
-41 -61 -56 -61 -18 0 -18 20 2 48 15 21 54 31 54 13z m-5990 -92 c19 -11 91
-77 160 -147 69 -70 144 -142 168 -160 28 -22 42 -41 42 -57 0 -22 -2 -23 -32
-15 -22 6 -62 40 -118 98 -47 49 -121 113 -165 142 -111 73 -125 87 -125 127
0 40 18 43 70 12z m5906 -16 c-23 -43 -86 -117 -137 -162 -57 -49 -191 -143
-197 -136 -6 6 53 101 95 153 40 49 116 109 187 146 62 33 70 33 52 -1z
m-2728 -135 c-3 -7 -20 -14 -39 -16 -32 -2 -33 -1 -15 13 24 18 59 20 54 3z
m-558 -38 c0 -35 -10 -38 -34 -11 -21 23 -14 41 15 41 14 0 19 -7 19 -30z
m448 -21 c2 -11 -6 -19 -24 -23 -34 -9 -52 7 -34 29 16 20 54 16 58 -6z m1193
-153 c41 -68 22 -165 -73 -371 -33 -71 -82 -183 -109 -247 -122 -294 -170
-348 -310 -348 -42 0 -109 30 -109 48 0 5 35 36 78 69 101 79 127 128 231 435
90 269 124 346 174 406 21 24 37 48 37 52 0 20 63 -15 81 -44z m1285 -13 c-3
-10 -8 -36 -12 -58 -23 -138 -119 -291 -281 -444 -64 -61 -118 -109 -120 -108
-6 7 47 157 73 209 39 77 67 119 187 276 88 115 114 142 134 142 18 0 23 -4
19 -17z m-4965 -191 c205 -296 327 -516 294 -528 -19 -8 -77 12 -108 37 -14
10 -49 52 -78 91 -30 40 -102 131 -161 202 -60 72 -108 138 -108 148 0 10 -11
47 -25 84 -29 76 -31 106 -10 124 8 7 15 19 15 26 0 8 10 14 23 14 17 0 49
-40 158 -198z m1096 -249 c72 -148 145 -303 163 -345 19 -43 39 -78 46 -78 34
0 68 25 121 89 49 61 116 112 129 99 2 -3 -10 -36 -26 -74 -16 -38 -37 -102
-46 -141 -17 -71 -18 -73 -49 -73 -39 0 -65 19 -68 48 -2 35 -35 27 -54 -13
-19 -40 -30 -42 -98 -18 -82 27 -134 89 -214 255 -38 79 -86 188 -106 242 -37
102 -69 240 -61 263 4 9 26 13 69 13 l64 0 130 -267z m1322 154 c48 -11 54
-15 65 -47 7 -19 24 -53 39 -75 32 -47 36 -81 10 -70 -160 67 -380 78 -528 26
-80 -28 -77 -28 -82 -15 -2 6 12 33 32 60 19 27 42 63 49 79 14 29 16 30 123
41 142 14 226 15 292 1z m-80 -187 c201 -26 375 -113 471 -238 44 -58 80 -159
80 -229 0 -50 -2 -54 -16 -42 -9 8 -49 63 -89 124 -124 188 -179 228 -363 267
-74 16 -135 21 -257 21 -235 1 -339 -28 -442 -125 -71 -67 -124 -148 -164
-252 -17 -44 -33 -83 -36 -86 -3 -3 -3 38 -1 91 3 83 8 105 36 161 109 223
435 351 781 308z m-4071 -73 l42 0 0 -39 c0 -36 -2 -39 -22 -32 -13 3 -36 13
-53 21 -62 31 -89 73 -37 57 15 -5 46 -8 70 -7z m171 -9 c30 -5 67 -8 83 -6
l28 5 -6 -56 c-3 -31 -7 -67 -10 -80 l-5 -24 -24 23 c-24 23 -25 23 -45 5 -20
-18 -20 -18 -20 29 0 29 -4 45 -10 41 -5 -3 -10 -17 -10 -31 0 -39 -18 -28
-22 14 l-3 37 -15 -30 c-9 -18 -23 -30 -35 -30 -17 0 -20 6 -18 48 2 53 18 81
42 72 9 -4 40 -11 70 -17z m265 -30 c8 -13 6 -22 -8 -37 -11 -12 -25 -21 -32
-21 -16 0 -29 43 -20 66 8 20 45 15 60 -8z m-94 -27 c0 -52 -8 -71 -31 -71
-15 0 -19 7 -19 33 0 51 11 77 31 77 15 0 19 -7 19 -39z m8895 9 c253 -6 418
-14 470 -24 89 -15 245 -64 245 -76 0 -15 -105 -77 -190 -113 -132 -56 -280
-93 -604 -153 -411 -75 -536 -108 -676 -179 -53 -27 -56 -27 -121 -15 -37 7
-77 10 -89 7 -18 -5 -42 15 -133 106 -61 62 -123 126 -139 144 l-29 31 193
101 c210 109 332 155 448 169 99 12 163 13 625 2z m-5125 -15 c316 -74 552
-397 501 -684 -13 -73 -37 -119 -96 -181 -18 -19 -54 -68 -79 -108 -70 -109
-95 -117 -480 -148 -264 -21 -324 -17 -376 25 -21 17 -45 31 -52 31 -7 0 -32
36 -56 81 -52 96 -90 141 -148 175 -40 24 -43 28 -50 82 -4 31 -4 101 -1 156
16 269 148 488 329 546 111 35 403 49 508 25z m-3471 -119 c66 -124 125 -208
214 -303 47 -50 80 -73 170 -119 150 -76 165 -88 195 -153 22 -48 27 -74 30
-177 l4 -121 -193 52 c-407 110 -608 179 -814 280 -71 35 -145 73 -164 85 -33
21 -34 22 -29 84 6 74 18 98 93 191 31 39 70 93 87 122 23 40 38 55 66 64 20
6 78 32 127 57 92 46 135 62 147 55 3 -2 34 -54 67 -117z m5635 98 c26 -10 19
-57 -19 -126 -19 -34 -49 -91 -66 -125 -26 -54 -35 -63 -58 -63 -15 0 -63 -11
-107 -24 -43 -13 -80 -22 -82 -21 -6 5 49 108 94 175 23 36 68 93 99 128 48
52 62 62 90 62 18 0 40 -3 49 -6z m1948 -19 l12 -26 21 27 c14 18 28 25 38 21
31 -12 6 -42 -56 -69 -69 -30 -75 -26 -62 38 7 41 30 45 47 9z m-312 -102 c0
-92 -10 -102 -60 -63 -14 11 -33 20 -42 20 -12 0 -19 12 -24 46 -7 50 7 94 30
94 19 0 25 -19 15 -54 -5 -16 -7 -32 -4 -34 10 -10 25 12 31 46 18 102 54 66
54 -55z m81 77 l5 -35 17 38 c10 23 23 37 34 37 16 0 18 -8 15 -72 -2 -40 -8
-79 -14 -85 -18 -22 -36 -14 -43 17 -10 47 -24 35 -27 -22 -2 -40 -7 -54 -20
-56 -22 -4 -32 32 -33 118 0 81 8 102 37 98 18 -2 24 -11 29 -38z m160 18 c4
-80 -9 -108 -49 -108 -24 0 -25 1 -19 55 7 67 12 75 43 75 18 0 24 -6 25 -22z
m-389 -35 c2 -57 -1 -76 -15 -85 -19 -12 -28 5 -34 66 -6 55 -6 56 21 56 23 0
26 -4 28 -37z m-134 15 c13 -17 -3 -58 -22 -58 -9 0 -23 12 -32 26 -15 22 -15
27 -3 35 20 12 45 11 57 -3z m56 -25 c-8 -45 -9 -47 -23 -38 -12 7 -15 58 -4
68 3 4 13 7 20 7 11 0 12 -9 7 -37z m-167 1 c-3 -4 -14 -3 -24 0 -15 6 -15 8
-3 16 16 10 39 -4 27 -16z m-2824 -42 c44 -29 90 -101 85 -134 -4 -28 -41 -48
-90 -48 -38 0 -38 0 -38 40 0 22 -9 63 -20 92 -11 29 -20 63 -20 76 0 20 2 22
23 11 12 -7 39 -24 60 -37z m5407 -17 c146 -89 196 -213 136 -341 -13 -28 -66
-106 -117 -175 -52 -68 -129 -171 -171 -229 -101 -138 -181 -215 -363 -346
-242 -174 -502 -380 -620 -491 -167 -158 -262 -197 -640 -267 -104 -19 -228
-44 -275 -56 -107 -28 -91 -30 -667 51 -82 11 -296 47 -478 79 -181 32 -403
70 -491 85 -308 49 -602 135 -944 275 -96 40 -247 98 -335 129 -184 66 -251
99 -306 154 -49 49 -49 61 -1 42 70 -27 187 -54 367 -84 233 -39 280 -53 575
-170 316 -126 643 -210 950 -246 150 -18 153 -18 144 -4 -14 24 -81 41 -198
50 -218 18 -348 52 -811 214 -121 42 -260 87 -309 100 -49 14 -91 26 -94 29
-2 3 5 22 17 43 12 21 35 65 51 98 l30 60 127 -7 c196 -11 639 -59 908 -99
l70 -11 175 -139 c202 -161 363 -273 505 -352 106 -58 270 -131 320 -142 l30
-6 -27 24 c-15 14 -66 40 -113 58 -47 17 -99 44 -115 59 -26 25 -28 31 -20 60
13 44 42 74 99 101 62 30 194 30 400 0 256 -37 338 -41 500 -25 194 18 252 17
341 -6 82 -22 118 -24 139 -11 11 7 7 13 -18 25 -62 33 -124 37 -305 20 -204
-19 -404 -10 -796 36 -109 13 -215 13 -261 0 -71 -20 -122 -71 -144 -143 -5
-18 -8 -17 -53 8 -160 92 -425 287 -601 442 l-44 39 33 64 c46 93 117 189 143
195 12 2 105 18 207 35 272 45 554 102 920 185 179 41 360 79 402 84 l77 11
113 -60 c256 -134 582 -223 968 -264 205 -22 250 -24 250 -15 0 21 -63 39
-139 39 -92 0 -294 35 -496 86 -266 67 -510 136 -561 160 -51 24 -124 86 -124
105 0 12 99 58 188 88 104 35 246 68 502 116 470 87 681 156 805 260 38 32 67
28 145 -20z m-2466 -6 c172 -57 299 -136 478 -301 91 -85 136 -145 120 -160
-10 -9 -305 -92 -452 -127 -248 -58 -515 -109 -803 -151 -191 -28 -184 -28
-198 22 -13 50 -8 100 23 204 l21 75 121 58 c67 32 156 82 198 110 93 62 226
185 280 259 39 53 40 53 81 47 23 -4 82 -20 131 -36z m-5516 -26 c20 -16 58
-70 87 -121 28 -50 62 -103 75 -117 l23 -25 -38 0 c-52 0 -116 33 -161 82 -36
40 -84 135 -98 192 l-7 29 42 -6 c24 -3 56 -17 77 -34z m-2110 -320 c-3 -47
-4 -48 -44 -57 -55 -11 -99 9 -99 44 0 21 6 26 40 31 22 3 51 11 65 17 39 17
41 15 38 -35z m8363 -85 c48 -14 52 -38 7 -38 -41 0 -108 18 -108 29 0 24 41
28 101 9z m-7036 -88 c72 -16 314 -39 640 -60 492 -31 648 -51 855 -110 59
-17 146 -37 191 -45 78 -14 128 -36 136 -62 3 -7 -30 -15 -84 -23 -204 -28
-269 -48 -388 -120 -213 -129 -263 -139 -765 -151 -212 -5 -401 -11 -420 -14
-35 -6 -35 -5 -84 76 -27 45 -65 102 -84 127 -33 43 -35 50 -33 116 2 65 -10
120 -56 259 -4 13 0 17 23 17 16 0 47 -5 69 -10z m1822 -637 c63 -44 162 -56
229 -28 25 10 41 12 54 5 25 -13 100 -100 100 -115 0 -20 -79 -87 -145 -125
-104 -58 -142 -90 -214 -181 -39 -48 -84 -97 -100 -108 l-29 -21 -26 65 c-14
36 -26 71 -26 79 0 28 87 98 175 140 50 24 134 65 188 91 54 25 97 48 95 50
-6 6 -274 -91 -333 -120 -29 -14 -70 -39 -91 -56 -58 -46 -66 -49 -182 -64
-114 -15 -182 -33 -327 -85 -133 -47 -227 -78 -257 -84 -14 -3 -79 -41 -145
-84 -65 -42 -131 -83 -146 -90 -50 -21 -97 -13 -236 42 -75 30 -174 62 -221
71 -96 19 -132 35 -154 67 -14 20 -14 23 4 35 39 28 140 55 401 108 146 30
319 71 385 91 104 32 138 37 274 44 180 9 313 31 610 102 118 27 258 58 310
68 52 10 84 19 70 19 -14 1 -126 8 -249 16 -123 9 -226 13 -229 11 -12 -12 60
-30 143 -36 100 -7 103 -5 -80 -49 -121 -30 -254 -54 -355 -66 l-55 -6 130 69
c130 69 226 125 319 188 l50 33 17 -28 c9 -16 30 -37 46 -48z m1694 -39 c11
-14 10 -20 -14 -40 -15 -13 -44 -28 -65 -33 -48 -14 -162 -14 -162 -1 0 6 6
10 13 10 6 0 41 18 77 40 71 44 127 53 151 24z m-378 -28 c23 -18 21 -26 -6
-26 -23 0 -47 17 -47 32 0 13 33 9 53 -6z m28 -70 c121 -39 214 -56 512 -91
252 -30 347 -52 698 -163 388 -123 539 -163 739 -192 154 -23 218 -38 254 -62
62 -40 41 -73 -59 -97 -27 -7 -117 -33 -200 -57 -207 -62 -237 -64 -371 -25
-236 69 -498 168 -954 361 -336 142 -641 262 -647 256 -3 -2 0 -13 6 -24 11
-21 8 -20 206 -92 155 -57 424 -185 432 -206 9 -24 -23 -58 -81 -88 l-55 -28
-43 33 c-23 19 -85 72 -138 118 -135 119 -210 165 -333 205 -9 3 -21 16 -26
28 -5 13 -20 34 -35 47 -27 26 -51 84 -41 101 9 15 24 13 136 -24z m582 3 c82
-27 189 -80 194 -96 3 -9 -4 -10 -27 -3 -40 11 -211 35 -362 51 -65 6 -115 15
-112 20 6 11 59 39 94 50 38 13 139 3 213 -22z m-1485 -63 c15 -8 44 -28 65
-44 l38 -30 204 -1 c202 -1 206 -1 296 29 50 16 103 30 118 30 25 -1 24 -2
-10 -20 -115 -61 -346 -90 -563 -72 -127 11 -266 30 -274 37 -8 7 33 57 57 70
33 18 36 18 69 1z m788 -91 c-11 -29 -35 -130 -61 -255 -57 -275 -106 -382
-199 -440 l-34 -20 -43 20 c-52 23 -119 25 -209 5 -222 -49 -281 20 -310 360
-12 138 -33 263 -50 295 -14 25 -10 25 150 -1 69 -11 190 -22 270 -25 l145 -6
135 40 c146 44 216 53 206 27z m-996 -22 c0 -3 -30 -63 -66 -132 -137 -261
-263 -419 -415 -518 -41 -27 -185 -106 -320 -175 -262 -136 -293 -147 -489
-173 -63 -8 -250 -49 -415 -90 -437 -109 -642 -135 -1081 -135 -492 0 -760 49
-997 182 -160 90 -339 237 -491 404 -55 60 -113 123 -129 140 -28 31 -28 32
-12 64 27 52 102 120 163 148 43 20 78 27 144 30 83 4 94 2 230 -44 136 -45
148 -48 248 -47 65 0 181 12 305 31 212 33 321 43 715 67 135 8 288 21 340 29
93 14 170 10 191 -11 15 -15 -27 -69 -73 -91 -64 -31 -405 -127 -558 -157
-223 -43 -377 -58 -615 -58 -160 -1 -253 4 -340 17 -66 10 -151 18 -190 19
-78 2 -165 -10 -165 -22 0 -22 106 -33 385 -42 672 -21 1158 49 1490 213 119
59 122 59 294 -7 64 -24 161 -58 216 -75 137 -42 134 -40 100 -92 -120 -181
-370 -322 -732 -412 -293 -74 -510 -105 -778 -113 -187 -5 -255 -17 -255 -45
0 -12 273 -4 475 13 467 39 846 151 1105 326 90 60 214 180 255 245 27 43 41
52 210 137 197 98 267 129 395 173 89 30 247 71 315 82 22 4 52 9 67 12 24 5
28 0 58 -63 18 -37 41 -77 51 -89 19 -21 19 -21 -63 -100 -145 -139 -277 -216
-772 -449 -255 -120 -168 -112 117 12 395 170 636 326 783 506 81 100 274 296
292 296 6 1 12 -2 12 -6z m1044 -9 c12 -4 16 -20 16 -54 0 -129 48 -246 161
-390 128 -164 159 -212 180 -281 24 -77 18 -98 -34 -129 -40 -25 -51 -25 -102
0 -42 20 -279 264 -317 325 -24 39 -23 60 6 147 17 51 28 113 35 203 8 115 22
185 35 185 2 0 11 -3 20 -6z m-978 -49 c15 -36 34 -223 34 -335 0 -81 -20
-125 -105 -240 -117 -157 -217 -230 -317 -230 -46 0 -47 1 -54 36 -20 108 23
209 168 384 128 156 126 152 178 280 65 161 70 166 96 105z m1124 -15 c108
-59 197 -137 358 -313 201 -220 301 -297 547 -422 153 -78 385 -173 578 -236
136 -45 415 -119 449 -119 22 0 22 0 3 19 -15 15 -44 22 -110 30 -104 11 -273
70 -515 178 -218 98 -250 111 -313 129 -35 9 -68 26 -80 40 -11 13 -26 24 -32
24 -18 0 -212 130 -297 199 -69 56 -178 172 -178 190 0 4 22 13 49 20 56 14
97 47 107 85 3 14 10 26 14 26 4 0 34 -12 66 -26 91 -41 488 -197 592 -234 50
-17 158 -51 240 -74 l147 -42 70 -104 c85 -128 148 -178 345 -279 361 -185
709 -280 1026 -281 61 0 133 4 160 10 218 44 229 47 207 58 -31 17 -96 15
-161 -5 -79 -25 -367 -24 -502 0 -511 94 -941 317 -1068 554 -33 62 -33 73 1
73 11 0 95 26 186 57 162 56 169 57 276 58 104 0 119 -3 280 -52 269 -81 467
-107 815 -107 166 0 272 5 360 17 139 19 332 59 428 89 56 17 61 21 52 38 -13
24 -35 25 -81 6 -38 -15 -270 -66 -449 -97 -75 -13 -182 -22 -305 -26 -174 -5
-197 -3 -275 17 -47 12 -137 26 -200 30 -110 9 -154 17 -300 60 -36 10 -103
24 -150 31 -75 11 -89 16 -119 46 -27 27 -31 36 -21 48 18 22 83 19 275 -15
793 -140 952 -142 1409 -19 l109 30 65 -31 c81 -38 139 -84 187 -149 l36 -50
-25 -48 c-38 -76 -99 -137 -245 -246 -74 -55 -159 -123 -189 -149 -36 -33 -98
-71 -195 -117 -249 -121 -428 -178 -644 -206 -148 -20 -217 -19 -393 5 -386
51 -545 81 -918 174 -119 30 -321 78 -447 105 -476 105 -595 163 -965 470
-221 184 -303 293 -330 441 -7 36 -16 73 -21 82 -9 18 -2 48 11 48 4 0 40 -18
80 -40z m-594 -625 c23 -3 56 -18 73 -33 l33 -27 -170 0 c-141 0 -169 2 -159
13 24 30 127 65 167 57 8 -2 34 -6 56 -10z m117 -115 c43 -13 46 -22 14 -43
-65 -42 -240 -62 -318 -36 -34 12 -79 46 -79 60 0 8 49 24 100 33 42 8 243 -2
283 -14z m799 -55 c39 -26 118 -133 118 -158 0 -22 -38 -66 -82 -93 l-39 -25
-64 68 c-35 37 -72 86 -82 107 l-17 39 29 21 c16 12 38 31 49 42 28 29 44 29
88 -1z m-1914 -15 c24 -16 48 -30 55 -33 22 -7 -42 -116 -86 -145 -72 -48
-177 -26 -185 39 -4 35 56 129 98 151 47 25 68 23 118 -12z m1007 -73 l40 -15
-40 -17 c-32 -14 -56 -16 -122 -11 -91 7 -116 13 -110 30 12 38 143 45 232 13z
m240 -101 c289 -51 425 -154 561 -426 24 -46 40 -88 36 -91 -22 -20 -294 -73
-451 -89 -132 -13 -464 -13 -606 0 -235 22 -543 74 -750 128 -82 22 -82 21
-28 130 66 134 228 279 370 332 79 30 216 39 523 35 173 -2 284 -8 345 -19z
m-1418 -55 c24 -14 43 -29 43 -34 0 -20 -142 -240 -232 -359 -77 -102 -271
-313 -321 -349 -44 -32 -94 -38 -104 -13 -11 30 26 177 66 261 56 116 130 220
235 330 86 91 196 185 226 195 20 7 36 1 87 -31z m2333 -16 c81 -59 335 -339
410 -451 70 -105 126 -232 137 -310 l6 -45 -54 21 c-82 32 -194 95 -257 144
-130 100 -310 316 -391 468 -63 118 -65 163 -8 199 45 28 95 20 157 -26z
m-1844 -514 c509 -103 1006 -105 1432 -5 62 15 114 25 117 23 10 -11 57 -214
75 -324 16 -97 39 -375 40 -470 0 -20 -11 -22 -172 -38 -676 -67 -1367 -33
-1927 95 l-94 22 6 161 c4 114 13 195 32 283 25 120 78 279 108 326 l16 23
108 -33 c60 -18 176 -46 259 -63z m-1106 -268 c0 -65 -128 -883 -151 -971 -11
-41 -57 -92 -82 -92 -27 0 -57 44 -57 84 0 112 120 722 154 786 14 25 34 70
46 100 29 75 47 100 70 100 11 0 20 -3 20 -7z m3548 -70 c30 -43 63 -111 77
-162 30 -102 36 -211 31 -562 -4 -294 -8 -355 -21 -375 -13 -21 -18 -22 -40
-12 -77 35 -117 211 -119 518 -1 193 8 249 42 270 12 7 13 12 6 17 -49 34 -68
219 -30 296 10 20 22 37 26 37 5 0 17 -12 28 -27z m-2836 -433 c420 -100 958
-144 1492 -121 155 7 344 18 421 25 77 8 141 13 143 11 5 -4 -19 -201 -38
-310 -35 -201 -117 -445 -149 -445 -10 0 -82 11 -162 24 -285 48 -449 61 -809
61 -350 0 -347 0 -655 -55 -88 -16 -180 -30 -205 -32 l-45 -3 -33 114 c-63
222 -92 421 -92 636 0 69 2 125 4 125 2 0 60 -13 128 -30z m-915 -604 c13 -12
-199 -457 -272 -572 -78 -123 -158 -202 -176 -173 -16 26 -9 94 16 148 14 29
55 92 93 139 37 48 74 105 83 127 8 22 48 91 87 154 40 63 77 132 83 154 10
38 11 39 47 32 20 -4 38 -8 39 -9z m3876 -167 c20 -22 53 -80 73 -127 21 -48
60 -127 87 -177 73 -138 105 -207 112 -244 l7 -33 -32 18 c-71 42 -130 136
-215 344 -25 63 -60 139 -76 169 -16 30 -29 63 -29 73 0 31 37 20 73 -23z
m-1563 -54 c159 -15 314 -37 409 -56 53 -11 53 -11 48 -43 -3 -18 -23 -62 -44
-97 -22 -35 -64 -116 -95 -179 -67 -140 -130 -225 -203 -275 l-55 -38 -87 6
c-49 4 -149 18 -223 32 -216 40 -283 42 -430 10 -150 -33 -241 -41 -296 -26
-60 16 -125 79 -169 163 -21 40 -71 127 -110 193 -77 128 -115 199 -115 213 0
10 113 45 215 66 68 14 325 42 455 50 126 7 547 -4 700 -19z m1935 -607 c36
-35 51 -74 36 -97 -17 -26 -52 -1 -79 57 -15 32 -28 60 -30 65 -10 21 43 3 73
-25z m-4710 -89 c-7 -56 -9 -59 -33 -59 -56 0 -58 13 -17 85 31 56 39 65 47
51 6 -10 7 -43 3 -77z m2585 -19 c63 -12 117 -23 120 -26 3 -3 -10 -19 -27
-34 -30 -27 -65 -40 -225 -85 -31 -9 -73 -27 -94 -41 l-37 -25 -27 19 c-39 29
-114 66 -230 112 -58 22 -109 45 -114 50 -10 10 72 36 159 50 92 14 344 4 475
-20z m2245 -56 c38 -30 75 -82 75 -109 0 -11 -57 -4 -77 10 -11 8 -28 34 -36
57 -8 24 -18 51 -22 61 -11 26 7 21 60 -19z m-4885 -114 c0 -51 -33 -94 -61
-79 -33 17 -33 37 2 88 39 56 59 53 59 -9z m5023 -76 c35 -35 55 -93 36 -105
-33 -21 -54 -9 -80 48 -15 32 -25 63 -22 70 8 21 38 15 66 -13z m-5053 -91 c0
-62 -76 -125 -94 -77 -11 29 -6 44 30 84 29 32 39 38 50 29 8 -6 14 -22 14
-36z m5138 -67 c46 -24 75 -62 76 -102 1 -36 0 -37 -37 -38 -35 -1 -40 2 -52
31 -16 38 -30 123 -21 123 4 0 19 -6 34 -14z m-5210 -101 c2 -2 1 -21 -3 -43
-11 -69 -63 -103 -97 -64 -14 15 -14 22 -2 52 7 19 16 43 20 53 6 15 13 17 43
12 20 -4 38 -8 39 -10z"/>
<path d="M6011 7131 c-51 -55 -65 -188 -26 -244 39 -56 91 -51 122 12 27 54
25 190 -3 228 -30 40 -59 41 -93 4z m64 -21 c34 -38 29 -155 -10 -205 -15 -20
-15 -19 -41 9 -24 27 -26 36 -22 91 5 59 30 125 47 125 4 0 16 -9 26 -20z"/>
<path d="M6772 7123 c-7 -3 -18 -17 -26 -31 -50 -100 -15 -253 61 -260 48 -5
65 28 71 143 l5 94 -33 31 c-31 29 -50 34 -78 23z m55 -70 c22 -57 24 -153 4
-177 -13 -15 -16 -15 -39 6 -32 30 -52 78 -52 127 0 60 15 91 44 91 20 0 28
-9 43 -47z"/>
<path d="M6402 6998 c-7 -7 -12 -22 -12 -35 0 -20 5 -23 40 -23 41 0 50 13 34
54 -7 19 -45 21 -62 4z"/>
<path d="M6283 6845 c-13 -9 -23 -25 -23 -36 0 -16 7 -19 46 -19 45 0 45 0 42
33 -4 38 -30 47 -65 22z m55 -26 c-2 -6 -7 -10 -11 -10 -4 1 -14 1 -23 1 -8 0
-12 5 -9 10 8 13 48 13 43 -1z"/>
<path d="M7244 5266 c-8 -35 1 -44 16 -16 8 15 9 25 1 33 -7 7 -12 2 -17 -17z"/>
</g>
</svg>
